<?xml version="1.0" encoding="UTF-8"?>
<svg id="Layer_1" data-name="Layer 1" xmlns="http://www.w3.org/2000/svg" viewBox="0 0 1190.25 842.25">
  <defs>
    <style>
      .cls-1, .cls-2, .cls-3, .cls-4, .cls-5, .cls-6, .cls-7, .cls-8, .cls-9, .cls-10 {
        fill: none;
      }

      .cls-1, .cls-2, .cls-5, .cls-6, .cls-7, .cls-9, .cls-10 {
        stroke: #00aeef;
      }

      .cls-1, .cls-2, .cls-6, .cls-9, .cls-10 {
        stroke-linecap: round;
        stroke-linejoin: round;
      }

      .cls-1, .cls-7, .cls-8 {
        stroke-width: .2px;
      }

      .cls-2 {
        stroke-width: .3px;
      }

      .cls-3 {
        stroke-dasharray: 1.84 1.84;
      }

      .cls-3, .cls-4 {
        stroke: #ea0a8c;
        stroke-width: .2px;
      }

      .cls-3, .cls-4, .cls-5, .cls-7, .cls-8 {
        stroke-miterlimit: 10;
      }

      .cls-11 {
        fill: gray;
        font-family: CenturyGothic, 'Century Gothic';
        font-size: 11.05px;
      }

      .cls-5, .cls-6 {
        stroke-width: .05px;
      }

      .cls-12 {
        fill: #ec008c;
        font-family: 29LTAdir-Regular, '29LT Adir';
        font-size: 11.04px;
      }

      .cls-8 {
        stroke: #ababab;
      }

      .cls-9 {
        stroke-width: .7px;
      }

      .cls-10 {
        stroke-width: .75px;
      }
    </style>
  </defs>
  <path class="cls-1" d="M245.7,568.3v.42M173.31,649.04h0M173.31,649.04h0M173.31,624.91v1.09M173.31,626h0v.08M173.06,644.53h0l.08.08M173.31,644.62h0v.08M173.31,632.51v-.17M173.31,632.68v-.17M173.31,637.02v.25M214.47,649.54v-21.96M214.47,627.58v-4.09M206.46,649.46h-.08l-.25.08h-.33M196.77,524.63h0v13.28M203.28,545.09v.08M203.28,544.59v-.17M216.89,544.59h-13.61M203.28,518.12h13.61M216.89,518.29h-13.61M203.28,518.29h-.17M203.28,518.29h0M203.12,536.66h0M256.13,481.55h-.25l-.17.08-.25.08-.17.17-.17.17-.08.17-.08.25v.25M254.97,498.08v-15.36M381.13,657.81v16.62M381.13,674.43h-124.99M254.97,673.26v.17l.08.25.08.25.17.17.17.08.25.17.17.08h.25M266.02,674l-9.89-.07v.5M256.13,671.5,254.97,673.26v-15.45M254.97,657.81v-159.73M381.13,481.55v16.53M256.13,481.55h124.99M271.61,500.16,381.13,498.08v159.73M245.7,568.72h-.5l-.5-.08h-1.59M243.11,568.64v-.75M254.97,568.72h-9.27M243.11,494.58v-.75M243.11,493.82h0M243.11,493.82h.08l.17.08h2.34M254.97,493.74h-9.27M245.7,493.74h-1.42l-.42.08h-.75M245.7,493.91h9.27M243.11,567.64v-.08M243.11,567.64l.08.08.17.17.17.08.33.08.42.08.42.08h.5l.5.08M245.7,568.3l9.27.08M239.98,494.46h2.27l.62-.08h.21M240.02,494.58h0v50.1M240.02,544.67v23.21M172.64,644.2h0v-15.36M216.89,648.12v.5l.17.42.17.42.33.33.33.33.42.17.42.17.5.08M231.75,636.6v13.94M219.23,650.55h12.52M216.89,626.05v-64.93M231.75,591.01v45.59M216.89,561.12v-6.01M231.75,573.56v17.45M216.89,555.11v-52.02M397.66,482.72v-.25l-.08-.25-.08-.17-.17-.17-.17-.17-.17-.08-.25-.08h-.25M397.66,482.72v15.36M381.13,481.55h15.36M381.13,498.08v-16.53M397.66,573.81h-1.17M397.66,498.08v75.73M381.13,573.81h15.36M388.51,523,388.51,598.73,381.13,573.81v-75.73M396.49,573.81h-15.36M381.13,573.81v84M381.13,674.43v-16.62M396.49,674.43h-15.36M397.66,673.26v.17l-.08.25-.08.25-.17.17-.17.08-.17.17-.25.08h-.25M397.66,657.81v15.45M396.49,573.81h1.17M377.87,588.81,377.87,672.81,397.66,573.81v84M173.31,649.54h-.17v-.08l-.08-.08v-.08M173.31,649.54h0v-.25M204.53,649.29h-31.23M173.06,648.88h0v.42M173.06,649.29h.25M173.31,649.29h0v-.25M204.53,649.29h0v-.25M206.2,649.21h0l-.25.08h-1.42M204.53,649.29h1.67v-.08M204.53,649.54h0v-.25M173.06,648.88h0M173.06,648.88h0v.08h.08v.08h.17M173.31,649.04h31.23M204.53,649.04h0M206.46,649.46h-.08l-.08-.08M173.06,624.58v-.83M173.31,623.49h-.08v.08h-.08v.08h-.08v.08M173.06,624.58v-.08l.08-.08v-.08h.17M173.31,624.66v-.33M173.06,624.58v.58M173.31,624.66h-.08l-.08-.08h-.08M173.31,624.91h0v-.25M173.06,626.25h0v-1.09M173.31,624.91h-.08l-.08.08-.08.08v.08M173.06,648.88v-1.92M173.06,648.88h0v.08h.08v.08h.17M173.31,647.12h-.17v-.08h-.08v-.08M173.31,647.12h0v-.33M173.06,646.29v.67M173.06,646.96h0v-.08h.08l.08-.08h.08M173.31,646.79h0v-.33M173.06,646.29v-1.75M173.06,646.29v.08h.08v.08h.17M173.31,644.62v1.84M173.06,644.45v.08M173.06,629.42v.67M173.31,629.92h0v-.33M173.31,629.59h-.17v-.08h-.08v-.08M173.31,629.34h0v.25M173.06,629.42v-3.17M173.06,629.42h0v-.08h.25M173.31,626.08h-.17v.08h-.08v.08M173.06,632.43v.25M173.06,640.61v-.17M173.31,640.28v.08M173.06,632.43v-2.34M173.31,629.92h-.08l-.08.08h-.08v.08M173.31,632.34h-.17l-.08.08M173.31,640.36h-.08l-.08.08-.08.08v.08M173.31,640.36h0v.33M173.31,629.92v2.42M173.06,644.45v-3.84M173.06,644.45h0v.08h.08l.08.08h.08M173.06,640.61h.08v.08h.17M173.06,640.44v-3.42M173.31,640.28h-.08v.08h-.08l-.08.08M173.31,637.27v3.01M173.06,637.02v-4.34M173.31,632.68h-.25M173.31,637.02h-.25M214.72,623.74h0v4.01M214.72,627.75v21.54M205.2,623.49h-.67M204.53,623.49h-31.23M173.31,623.49v.83M173.31,626.08v3.26M173.31,632.68v4.34M173.31,640.69v3.92M173.31,647.12v1.92M173.31,649.04h31.23M204.53,649.04l.67.08.5.08.42.08.25.08.08.08M205.79,649.54h-1.25M204.53,649.54h-31.23M194.85,535.99h0v-9.44M194.85,526.56h0M198.36,537.58h4.76M203.12,545.17v-.08M203.12,544.84v-.25M203.28,544.59v.17M203.12,544.42h0v.17M203.28,544.59h-.17M203.12,518.04v.33M203.28,518.29v-.17M203.12,518.04v-.17M203.28,518.12h-.17v-.08M203.28,517.87v.25M203.12,543.34h0v.33M203.12,543.84v-.17M203.12,519.21h0v.33M203.12,519.21v-.25M203.12,543.34v-.17M203.12,519.71v-.17M203.12,541.83h0v.33M203.12,542.34v-.17M203.12,520.79v.33M203.12,541.83v-.42M203.12,520.79v-.17M203.12,521.63v-.5M203.12,539.83v.33M203.12,540.33v-.17M203.12,522.88v.33M203.12,539.83v-.67M203.12,522.88v-.08M203.12,523.97v-.75M203.12,537.49v.33M203.12,537.91v-.08M203.12,525.39h0v.33M203.12,537.49v-.83M203.12,536.66h0M203.12,525.39v-.08M203.12,526.56v-.83M203.12,526.56v.08M203.12,534.9h0v.25M203.12,535.24v-.08M203.12,528.06h0v.33M203.12,533.82h0v.17M203.12,534.9v-.92M203.12,529.31v-.92M203.12,528.06h0M203.12,529.31h0v.17M203.12,532.15h0v.17M203.12,530.98h0v.17M203.12,532.15v-1M203.12,532.4v-.08M216.89,517.7h-13.78M203.12,517.87h0v-.17M203.12,517.87h.17M203.28,517.87h13.61M203.28,518.29h-.17v.08M203.12,518.96v-.58M203.12,520.63v-.92M203.12,522.8v-1.17M203.12,525.3v-1.34M203.12,528.06v-1.42M203.12,530.98v-1.5M203.12,533.82v-1.42M203.12,536.66v-1.42M203.12,539.16v-1.25M203.12,541.42v-1.09M203.12,543.17v-.83M203.28,543.76l-.08.08h-.08M203.12,544.42v-.58M203.12,544.42h.17M203.28,544.42h13.61M203.28,544.76h13.61M203.28,544.76h-.17v.08M203.12,545.09h0v-.25M203.12,545.09h.17M203.28,545.09h13.61M203.28,545.17h13.61M203.28,545.17h-.17M203.12,545.17h0M216.64,511.11v-.08M240.02,567.89h3.26M173.06,628.84h-.42M172.64,644.2h.42M219.23,500.67l-.5.08-.42.08-.42.25-.33.33-.33.33-.17.42-.17.42v.5M240.02,500.67h-20.79M231.75,561.79h8.27M173.31,649.04h31.23M173.06,648.88h0v.08h.08v.08h.17M204.53,649.04l.58.08.5.08.42.08.17.08h.08M173.31,626l-.08.08h-.08v.08h-.08v.08M173.06,644.45h0v.08h.08v.08l.08.08h.08M173.31,632.51h-.17v.08h-.08v.08M173.06,637.02v.08l.08.08.08.08h.08M216.89,626.58h-2.17M214.72,646.46h2.17M214.72,623.74h0v-.08l-.08-.08h-.08v-.08h-.08M214.47,649.54h.17v-.08h.08v-.17M205.2,649.54h9.27M214.47,623.49h-9.27M196.77,524.63l-.42.08-.33.08-.33.17-.25.25-.25.25-.17.33-.17.42v.33M195.06,535.62v.42l.17.33.17.33.25.25.25.25.33.17.33.17h.42M203.12,524.63h-6.35M196.77,537.58h1.59M203.12,545.17h13.78"/>
  <path class="cls-1" d="M782.56,345.12l.08,1.84.42,1.75.58,1.42.75,1.25,1,.92.58.42M852.37,160.85l-.17-.08h-.33l-.08.08M782.23,344.62v.17l.08.17.08.08.17.08M782.23,214.2v.17l.08.08.08.17.17.08M860.38,159.93l-.33-.17-1.34-.42-1.5-.08-1.59.25-1.59.5-1.67.83M812.21,176.54l-1.42-.58-1.84-.5-1.92-.17-2.09.08-2.17.5-2.25.75-2.25,1-2.25,1.34-2.25,1.59-2.25,1.84-2.17,2.09-2,2.25-2,2.42-1.84,2.67-1.67,2.76-1.5,2.84-1.34,2.84-1.09,2.92-.92,3.01-.67,2.84-.5,2.84-.17,2.76v2.59l.33,2.5.5,2.25.67,2,1,1.84,1.17,1.59,1.34,1.34,1.34.83M951.56,218.13l1.67-.75,1.67-.58,1.59-.25,1.42.08,1.34.42.67.33M914.82,283.34l.75.33,1.17.17,1.17-.17,1.34-.5,1.25-.75,1.34-1,1.25-1.25,1.09-1.42,1-1.59.75-1.67.58-1.67.33-1.67.17-1.59-.17-1.5-.33-1.25-.58-1-.75-.75-.25-.08M952.39,375.18v.33l-.08.17-.17.08M963.33,356.31l.08-.08.17-.08.08-.17v-.08M885.1,409.92l-.42-.25-1-1-.83-1.25-.58-1.42-.33-1.67-.08-1.92M894.37,408.75v.17l-.08.17-.08.08-.08.08M756.35,278.41h0l-.08-.08v.08M756.18,278.66h.08M767.37,258.62h.08M767.28,258.87h-.08v-.08M756.43,271.9h-.17M756.18,272.15h-.08v-.08M761.69,262.46v-.08h-.08M761.69,262.13h.08M764.86,259.71h-.08M756.6,271.65h-.08v-.08M761.61,262.71h-.08M757.43,269.23h-.08v-.08M759.94,264.72h-.08M757.27,268.72h0l.08.08M759.44,264.88h-.08M772.21,259.54h-.17M757.68,281h.08M770.29,258.54h0M755.76,275.99h0v.08h.08M764.86,259.71h.17M757.43,269.23h0v-.17M759.77,264.8h.08l.08-.08M757.35,268.81h-.08v.17h.08M759.69,264.8h-.17v.08h-.08M782.06,277.49l.17.08M782.23,265.38l-11.94-6.85M781.98,188.32l-1,.5M782.48,188.15l-.25.08M780.98,188.82l-1.09.75-1,1.09-.83,1.25-.75,1.34-.5,1.42-.25,1.34-.08,1.25.17.83M776.22,203.01h-.08M776.3,202.93h0v-.08M776.3,200.68h-.08M776.39,200.51h0M782.98,187.57h0M776.8,198.09h-.08M782.98,187.73h-.08M776.89,198h-.08v-.08M781.14,189.57h0M777.64,195.5h0M781.14,189.74h-.08M780.56,190.49h-.08M778.14,194.58v-.08M777.81,195.41h-.08v-.08M779.47,192.08v-.08M778.97,192.83h0M776.8,203.43l-.58-.42M776.3,202.35v.58M776.3,202.93l.58.33M777.55,201.43l-1.25-.75M776.47,199.84l-.08.67M776.39,200.51l1.17.75M782.98,187.57l1.67.92M778.47,199.09l-1.67-1M784.48,188.65l-1.5-.92M782.98,187.73l-.58.58M777.14,197.17l-.25.83M776.89,198l1.59.92M781.14,189.57l1.92,1.09M780.56,190.49h0M779.56,196.58l-1.92-1.09M778.14,194.58v-.08M782.98,190.82l-1.84-1.09M780.56,190.49l1.92,1.09M780.06,195.67l-1.92-1.09M777.81,195.41l1.84,1.09M778.89,192.91h.08v-.08M781.48,193.16l-2-1.09M778.97,192.83l2,1.17M779.47,191.91l2.09,1.17M860.63,160.01l-.25-.08M852.37,160.85l-58.11,33.57M782.56,214.7v130.42M794.25,194.41l-1.67,1.09-1.59,1.34-1.59,1.59-1.5,1.75-1.34,1.92-1.17,2.09-1,2.09-.75,2.17-.58,2.17-.42,2.09-.08,2M870.9,265.72v130.42M870.9,396.14l.17,1.84.33,1.67.58,1.5.83,1.25,1,.92.5.42M948.97,211.03l-.58-.25-1.34-.42-1.5-.08-1.5.25-1.67.5-1.67.83M940.71,211.86l-58.03,33.57M882.68,245.43l-1.67,1.09-1.67,1.34-1.59,1.59-1.42,1.75-1.34,1.92-1.17,2.09-1,2.09-.83,2.17-.58,2.17-.33,2.09-.17,2M813.29,182.89l.25-.17M813.29,182.89l-.33.25-.25.25M814.46,182.31l-.08.08-.42.08-.42.25M821.47,178.3h-.08l-2.34.42-2.5.75-2.42,1.09-2.5,1.34-2.5,1.67-2.5,1.84-2.42,2.17-1.84,1.75M812.46,176.71l-.25-.17M963.67,287.26v.17l-.08.08-.17.08-.08.17M961.08,289.01l-.08.08h-.17l-.08.08h-.17l-.08.08M960.49,289.26l-1.59.25-1.59.25-1.5.42-1.5.42-1.42.5-1.34.5-1.34.67-1.17.58M940.71,211.86l1.67-.83,1.67-.5,1.5-.25,1.5.08,1.34.42.58.25M959.91,217.37l.17.08M924.92,265.97l-.17-.08M914.74,283.34h.08M912.73,279.75l.17-1.67.33-1.75.58-1.84.83-1.75.92-1.67,1.17-1.59,1.25-1.42,1.34-1.17,1.42-.92,1.34-.67,1.34-.33,1.25-.08,1.17.25,1,.58.75.83.58,1.09.33,1.34.17,1.59-.17,1.67-.33,1.75-.58,1.75-.75,1.75-1,1.75-1.17,1.5-1.25,1.42-1.34,1.17-1.34,1-1.42.58-1.34.42h-1.25l-1.17-.25-.92-.58-.83-.83-.58-1.09-.33-1.34-.17-1.5M892.36,325.58l56.69-32.73M892.36,325.58l-1.09.67-1.09.75-.92.83-.83.75-.75.92-.67.83-.5.92-.42.92M886.1,332.18l-.08.08v.08h-.08v.08h-.08l-.08.08M886.1,332.18,886.1,269.73,882.68,245.43l58.03-33.57M870.9,327.51v-61.79M870.9,327.51l10.94,6.35M893.53,251.69l58.03-33.57M883.51,333.85l-.25.08h-.17l-.25.08h-.42l-.25-.08h-.17l-.17-.08M881.84,333.85v-61.87M883.51,333.85l2.25-1.34M885.77,332.52v-62.45M885.77,270.06l.17-2.42.42-1.75.67-1.75.83-1.75,1-1.75,1.25-1.59,1.25-1.42,1.42-1.17,1.42-1M894.2,255.45l58.45-33.73M952.65,221.72l1.92-.83,1.34-.33,1.25.08,1.09.25,1,.67.75.92.58,1.17.33,1.42.17,1.59M961.08,226.64v62.37M961.08,289.01l2.25-1.25M870.9,265.72l.17-2,.33-2.09.58-2.17.83-2.17,1-2.09,1.17-2.09,1.34-1.92,1.42-1.75,1.59-1.59,1.67-1.34,1.67-1.09M881.84,271.98l.08-2,.33-2.09.58-2.17.83-2.09,1-2.17,1.17-2,1.34-2,1.5-1.75,1.5-1.59,1.67-1.34,1.67-1.09M874.33,403.74l-.5-.42-1-.92-.83-1.25-.58-1.5-.33-1.67-.17-1.84M885.26,410l-.17-.08M877.75,405.74l-.17.08M886.1,400.98,886.1,332.18,870.9,327.51v68.63M952.39,375.18l1.75-1.17,1.67-1.42,1.59-1.59,1.42-1.92,1.34-2,1.09-2.17.92-2.17.58-2.17.42-2.17.17-2.09M963.33,356.31v-68.55M961.08,289.01v68.8M961.08,357.81l-.17,1.75-.33,1.75-.58,1.92-.75,1.84-1,1.67-1.09,1.67-1.25,1.42-1.34,1.25-1.92,1.34M952.65,372.43l-58.45,33.73M894.2,406.16l-1.42.75-1.42.33-1.25.17-1.25-.25-1-.5-.83-.83-.67-1.09-.42-1.25-.17-2.17M885.77,401.32v-68.8M894.37,408.75l58.03-33.57M881.84,333.85l-10.94-6.35M885.77,332.52l-2.25,1.34M885.77,332.52h0l.08-.08h.08v-.08h.08v-.08l.08-.08M949.05,292.85l1.17-.58,1.34-.67,1.34-.5,1.42-.5,1.5-.42,1.5-.42,1.59-.25,1.59-.25M960.49,289.26l.08-.08h.17l.08-.08h.17l.08-.08M963.33,287.76l-2.25,1.25M963.33,287.76l.08-.17.17-.08.08-.08v-.17M881.84,333.85l.17.08h.17l.25.08h.42l.25-.08h.17l.25-.08M881.84,402.4v-68.55M757.68,281h0M770.29,258.54h0M767.03,259.12h-.08M755.76,275.49v-1.09l.08-.42.08-.5v-.5l.17-.5.08-.42M755.76,275.99h0l-.08-.08M756.26,271.9h0M761.61,262.38h0M761.69,262.21l.33-.42.42-.33.33-.33.42-.25.33-.33.42-.25.33-.25.42-.25M764.78,259.71h-.08v.08M756.6,271.56l.08-.33.08-.25.08-.33.08-.25.08-.33.17-.33.08-.25.08-.33M756.51,271.56h.08M759.85,264.72l.17-.25.25-.25.17-.25.25-.25.17-.25.25-.25.17-.17.25-.25M761.52,262.71h-.08v.08h.08M757.27,268.72l.25-.5.25-.5.25-.5.25-.5.25-.42.25-.5.33-.42.33-.5M757.27,268.72h0M759.35,264.88h.08M779.81,293.77h0M756.51,278.24l-.17.17M756.35,278.41h0l-.08.08v.08l-.08.08h.08M767.45,258.62h-.08v.08h-.08v.17M767.03,259.12h.08v-.08h.08v-.08l.08-.08M756.1,276.24h0l.08.33v.33l.08.25v.25l.08.33.08.25.08.25M767.03,259.12l-.17.08-.25.08-.25.08-.25.08-.25.08-.17.08-.25.17-.25.08M756.43,271.9h.08v-.08l.08-.08v-.08M756.18,272.15h0v-.08h.08v-.08l.08-.08h.08M761.61,262.71h0v-.08h.08v-.17M761.69,262.46v-.25l.08-.08M757.43,269.23l-.17.33-.08.33-.08.25-.17.33-.08.25-.08.33-.08.33-.08.25M761.61,262.71l-.25.25-.17.25-.25.25-.17.25-.25.25-.17.25-.25.25-.17.25M764.86,259.71l-.42.25-.33.25-.42.25-.42.33-.33.33-.42.33-.33.33-.42.33M759.44,264.88l-.25.5-.33.42-.25.5-.33.5-.25.5-.25.5-.25.5-.17.5M756.18,272.15l-.08.5-.08.5-.08.5-.08.5-.08.42v1.42M756.26,278.66l.08.42.17.33.17.25.17.33.17.25.25.33.25.25.17.17M779.81,293.77l.5.33.5.33.58.33.42.25M770.29,258.54l-.33-.08h-.33l-.33-.08h-.33l-.33.08h-.42l-.33.08-.42.08M776.22,200.68h0M782.98,187.57h0M779.47,191.91h0M776.22,203.01h.08v-.08M776.22,203.01l-.17.17M776.3,200.68h0l.08-.08v-.08M776.3,200.68l-.17.08M783.82,187.23l2.25-.58M782.98,187.73h0v-.17M782.98,187.4v.17M776.8,198.09h0l.08-.08M776.8,198.09h-.17M781.14,189.74h0v-.17M777.64,195.5h.08v-.08h.08M781.06,189.49l.08.08M777.64,195.5h-.08M781.14,189.74l-.58.75M778.14,194.58l-.33.83M779.47,192.08v-.08h.08v-.08h-.08M779.47,192.08l-.5.75M779.39,191.82l.08.08M785.07,187.9l-1.67-.92M782.98,187.32v-.08h.08l.08-.08.08-.08h.08v-.08h.08M782.98,187.32h-.08v.08h.08M782.98,187.4l1.67,1M782.15,188.23l1.92,1.09M782.15,188.23h-.17M781.06,189.32l.08-.08.17-.17.08-.17.17-.08.08-.17.17-.17.08-.08.08-.17M781.06,189.32v.17M781.06,189.49l2,1.17M780.39,190.41l2.09,1.17M780.39,190.41h-.17M779.39,191.66l.08-.17.08-.08.08-.17.17-.17.08-.17.08-.17.08-.17.17-.17M779.39,191.66l-.08.08.08.08M779.39,191.82l2.17,1.25M778.81,192.83l2.09,1.25M778.81,192.83h-.08l-.08.08M777.97,194.25l.08-.17.08-.17.08-.17.08-.17.08-.17.08-.17.08-.17.08-.17M777.97,194.25h0v.17M777.97,194.41l2.17,1.17M777.55,195.5l2,1.17M777.55,195.5l-.08-.08-.08.08M776.89,196.92l.08-.17v-.17l.08-.17.08-.25.08-.17v-.17l.08-.17.08-.17M776.89,196.92h0v.08l.08.08M776.97,197.08l1.92,1.09M776.64,198.09l1.75,1.09M776.64,198.09h-.08v.08h-.08M776.22,199.51v-.17l.08-.17v-.17l.08-.17v-.33l.08-.17v-.17M776.22,199.51v.17h.08M776.3,199.67l1.5.92M776.14,200.76l1.34.75M776.14,200.76v-.08l-.08.08M775.97,202.01v-.92l.08-.17v-.17M775.97,202.01v.17h.08M776.05,202.18l1,.58M776.05,203.18l.75.42M776.05,203.18v-.08l-.08.08M776.14,204.35v-.17l-.08-.17v-.42l-.08-.08v-.33M776.22,204.43l.25.17M782.23,344.62v1l.25,1.75.5,1.67.67,1.42.92,1.17,1.09.92.58.25M860.38,159.93l-.67-.33-1.34-.33-1.42-.08-1.59.17-1.59.5-1.59.75-.42.25M785.99,352.72l88.34,51.02M798.75,198.32,856.86,164.84,782.23,229.47v115.16M948.97,211.03l-88.34-51.02M812.21,176.54l-1.09-.5-1.84-.58-1.84-.33h-2.09l-2.09.17-2.09.58-2.25.75-2.17,1.09-2.25,1.34-2.17,1.5-2.09,1.84-2.09,2-2,2.17-1.84,2.34-1.75,2.42-1.59,2.59-1.42,2.67-1.25,2.76-1.09,2.76-.83,2.84-.67,2.76-.5,2.76-.25,2.67v2.59l.17,2.42.5,2.34.67,2.17.92,2,1.09,1.75,1.34,1.42,1.5,1.25.83.5M817.05,179.3l-4.59-2.59M781.98,229.56l.25.17M963.67,287.26v-61.87M959.91,217.37l-10.94-6.35M963.67,225.39l-.08-1-.17-1.75-.5-1.59-.67-1.42-.92-1.17-1.09-.92-.17-.08M913.15,279.24v-.75l.17-1.42.42-1.59.58-1.59.75-1.59.92-1.5,1-1.34,1.17-1.17,1.17-1.09,1.17-.75,1.17-.58,1-.25,1-.08.75.17.33.17M914.82,283.25l-.42-.25-.5-.67-.42-.83-.25-1.09-.08-1.17M952.14,375.77l.92-.58,1.59-1.17,1.5-1.42,1.5-1.59,1.34-1.75,1.17-1.84,1.09-2,.92-2,.67-2.09.5-2,.25-2,.08-1.42M894.11,409.25l58.03-33.48M963.67,355.89v-68.63M874.33,403.74l10.94,6.26M885.1,409.92l1,.5,1.42.42,1.42.08,1.5-.25,1.59-.42,1.67-.75.42-.25M772.21,259.54h-.08v-.08h-.08l-.08.08M757.68,281h.08M770.29,258.54h0M756.43,278.16l-.17.25M756.26,278.41h-.08v.25M767.37,258.62h-.08l-.08.08v.08M767.2,258.79v.08l-.08.08-.08.08-.08.08M755.68,275.9h0v.08h.08v.08h.08M765.03,259.71h-.08v-.08h-.17v.08M756.51,271.56v.08l-.08.08v.08l-.08.08h-.08M756.26,271.9h-.08v.08h-.08v.08M761.61,262.38h0v.17l-.08.08v.08M761.69,262.13h-.08v.25M757.35,269.06h0v.08M759.85,264.72h-.08v.08h-.08M757.27,268.72h-.08v.08l.08.08v.08h.08M759.69,264.8h-.25l-.08.08M782.23,265.3l-10.02-5.76M782.23,265.38l-11.94-6.85M781.81,295.03l.42.25M782.73,187.9h-.17l-1.09.17-1,.42-.42.17-.58.42-1,.92-.92,1.09-.67,1.25-.58,1.25-.33,1.34-.08,1.42.17,1.09.42,1M776.3,202.85h0l-.08.08v.08h-.08M776.14,203.01l-.17.17M776.22,202.35l.08.5M776.39,200.51h-.08v.17h-.08M776.22,200.68l-.17.08M776.47,199.76l-.08.75M782.98,187.57h0v.08l-.08.08M782.9,187.4l.08.17M776.8,197.92v.17h-.08M776.72,198.09h-.17M782.9,187.73l-.58.58M777.05,197.17l-.25.75M781.14,189.57h0v.08l-.08.08M777.72,195.33v.08h-.08v.08M781.06,189.49l.08.08M780.48,190.49h0M777.64,195.5l-.17-.08M778.14,194.5h0M781.06,189.74l-.58.75M778.14,194.5l-.42.83M779.47,191.91h0v.08M778.97,192.83h0l-.08.08M779.39,191.82l.08.08M779.47,191.99l-.5.83"/>
  <path class="cls-2" d="M826.32,573.81h114.89M872.49,532.07l.17-1.59.33-1.5.5-1.5.75-1.42.92-1.25,1.09-1.09,1.25-1,1.34-.75,1.42-.58,1.59-.42,1.5-.17,1.59.08,1.59.25,1.42.5,1.42.67,1.34.92,1.17,1,1,1.25.83,1.34.67,1.42.42,1.5.17,1.5v1.59l-.17,1.59-.42,1.5-.67,1.42-.83,1.34-1,1.17-1.17,1.09-1.34.83-1.42.75-1.42.42-1.59.33h-1.59l-1.5-.17-1.59-.33-1.42-.58-1.34-.83-1.25-.92-1.09-1.17-.92-1.25-.75-1.34-.5-1.5-.33-1.5-.17-1.59M843.68,573.81h-12.52M936.36,573.81h-12.52M827.32,573.81h-1.17M826.15,573.81v-75.73M831.16,573.81h-.67M826.15,498.08l.08-2,.42-1.92.58-1.92.83-1.84,1-1.75,1.25-1.59,1.42-1.34,1.5-1.25,1.75-1.09,1.84-.75,1.92-.67,1.92-.33,2-.08M842.68,481.55h82.16M827.32,573.81h3.17M937.03,573.81h3.17M830.49,573.81v-76.48M842.43,485.48h82.66M924.84,481.55l2,.08,1.92.33,1.92.67,1.84.75,1.75,1.09,1.5,1.25,1.42,1.34,1.25,1.59,1.09,1.75.75,1.84.58,1.92.42,1.92.08,2M941.37,573.81h-1.17M941.37,498.08v75.73M938.33,494.59,938.33,570.32,937.03,573.81h-.67M937.03,497.33v76.48M830.49,497.33l.33-2.76.58-1.84.92-1.75,1.17-1.59,1.42-1.42,1.75-1.09,1.84-.83,1.92-.5,2-.08M925.09,485.48l2.76.25,1.92.58,1.67.92,1.59,1.17,1.42,1.5,1.09,1.67.83,1.84.5,1.92.17,2M936.7,669.67,826.15,573.81h1.17M826.15,657.81v-84M830.49,573.81h.67M842.68,674.43l-2-.17-1.92-.33-1.92-.58-1.84-.83-1.75-1-1.5-1.25-1.42-1.42-1.25-1.59-1-1.67-.83-1.84-.58-1.92-.42-2-.08-2M924.84,674.43h-82.16M936.36,573.81h.67M940.2,573.81h1.17M941.37,573.81v84M940.2,573.81h-3.17M937.03,573.81v84.25M925.09,670h-82.66M830.49,658.06v-84.25M830.49,573.81h-3.17M941.37,657.81l-.08,2-.42,2-.58,1.92-.75,1.84-1.09,1.67-1.25,1.59-1.42,1.42-1.5,1.25-1.75,1-1.84.83-1.92.58-1.92.33-2,.17M842.43,670l-2-.17-1.92-.5-1.84-.75-1.75-1.17-1.42-1.34-1.17-1.59-.92-1.75-.58-1.84-.33-2.84M937.03,658.06l-.17,2-.5,2-.83,1.84-1.09,1.67-1.42,1.5-1.59,1.17-1.67.83-1.92.67-2.76.25"/>
  <path class="cls-7" d="M219.23,268.56h0v61.12M196.77,299.54v6.43M203.28,285.18h0M203.28,312.73v.25M203.2,312.73h-.08M203.28,311.81v.08M203.2,303.3h-.08v-.08M254.97,355.56v.25l.08.25.08.17.17.17.17.17.25.08.17.08h.25M254.97,355.56v-15.36M381.13,340.2v16.53M381.13,258.04v82.16M255.39,341.33v-82.16M381.13,241.51v16.53M256.13,241.51h-.25l-.17.08-.25.08-.17.17-.17.17-.08.25-.08.17v.25M254.97,258.04v-15.36M245.7,336.61h-1.42l-.42-.08h-.75M243.11,336.53v-.75M254.97,336.61h-9.27M243.11,262.47v-.75M243.11,261.72h0M243.11,261.72l.08.08h2.5M254.97,261.63h-9.27M245.7,261.63h-.5l-.5.08h-1.59M245.7,261.8l9.27.08M243.11,335.44v-.67M243.11,335.53v-.08M243.11,264.05v-.75M243.11,263.3v-.08M240.02,262.47h0v73.31M216.89,327.26h0v-56.28M381.13,356.73v-16.53M381.13,340.2v-82.16M381.13,258.04v-16.53M194.85,304.05h0v-4.59M194.85,299.46v-4.84M203.12,285.18h0M203.12,312.98v-.25M203.12,312.73h0M203.12,285.59v-.17M203.12,285.59v.17M203.12,312.31v-.17M203.28,312.06v.17M203.12,311.81h0v.33M203.28,312.06h-.17v.08M203.28,312.06h0v-.17M203.12,286.43v.33M203.12,286.43v-.17M203.28,311.9h-.17v-.08M203.12,286.85v-.08M203.12,310.56h0v.33M203.12,311.06v-.17M203.28,310.81h-.17v.08M203.12,287.85h0v.33M203.12,287.85v-.17M203.12,310.56v-.33M203.12,288.52v-.33M203.12,308.81h0v.33M203.12,289.1v-.17M203.12,309.31v-.17M203.12,308.81v-.5M203.12,306.64v.33M203.12,307.05v-.08M203.12,306.64v-.75M203.12,304.13v.33M203.12,304.55v-.08M203.12,302.63v-13.53M203.12,304.13v-.92M203.12,303.21h0M203.12,303.21v-.58M203.12,305.88v-1.34M203.12,308.31v-1.25M203.12,310.23v-.92M203.28,310.98h-.08l-.08.08M203.12,311.81v-.75M203.12,311.81h.17M203.28,312.23h13.61M203.28,312.23h-.08v.08h-.08M203.12,312.73v-.42M203.12,312.73h.17M203.28,312.73h13.61M203.28,312.98h13.61M203.28,312.98h-.17M203.12,313.07h0v-.08M203.12,313.07h.17M203.28,313.07h13.61M203.12,285.18h.17M203.28,285.18h13.61M203.28,285.18h13.61M203.28,285.18h-.17M203.12,285.43v-.25M203.12,286.26v-.5M203.12,287.68v-.83M203.12,288.93h0v-.42M216.64,279.5v-.17M216.64,279.33h.25M216.64,282.84v-.17M216.64,282.84h.25M216.64,279.92v-.42M216.64,279.5h.25M216.64,279.92h.25M216.64,282.67v-2.76M216.64,282.67h.25M216.64,315.82v-.5M216.64,315.32h.25M216.64,315.82h.25M216.64,318.83v-3.01M216.64,318.83h.25M240.02,335.78h3.26M243.28,262.47h-3.26M219.23,268.56l-.5.08-.42.17-.42.17-.33.33-.33.33-.17.42-.17.42v.5M216.89,327.26v.5l.17.42.17.42.33.33.33.33.42.25.42.08.5.08M240.02,268.56h-20.79M219.23,329.68h20.79M203.12,292.69h-6.35M196.77,305.97h6.35M196.77,292.69l-.42.08-.33.08-.33.17-.25.25-.25.25-.17.33-.17.42v.33M194.85,304.05v.42l.17.33.17.33.25.25.25.25.33.17.33.17h.42"/>
  <text class="cls-11" transform="translate(987.2 501.81) rotate(-15)"><tspan x="0" y="0"> </tspan></text>
  <g>
    <line class="cls-4" x1="172.54" y1="719.82" x2="398.34" y2="719.8"/>
    <line class="cls-4" x1="172.63" y1="713.99" x2="172.63" y2="724.26"/>
    <line class="cls-4" x1="398.35" y1="714.72" x2="398.35" y2="724.99"/>
    <text class="cls-12" transform="translate(280.33 715.21)"><tspan x="0" y="0">95.1</tspan></text>
  </g>
  <text class="cls-12" transform="translate(127.79 582.76) rotate(-90)"><tspan x="0" y="0">81.5</tspan></text>
  <line class="cls-4" x1="132.3" y1="480.55" x2="132.33" y2="674.61"/>
  <line class="cls-4" x1="138.13" y1="480.63" x2="127.87" y2="480.63"/>
  <line class="cls-4" x1="137.4" y1="674.62" x2="127.14" y2="674.62"/>
  <line class="cls-4" x1="129.02" y1="241.65" x2="129.05" y2="356.6"/>
  <line class="cls-4" x1="134.85" y1="241.7" x2="124.58" y2="241.7"/>
  <line class="cls-4" x1="134.12" y1="356.61" x2="123.85" y2="356.61"/>
  <text class="cls-12" transform="translate(124.92 304.05) rotate(-90)"><tspan x="0" y="0">48.7</tspan></text>
  <line class="cls-3" x1="883.96" y1="471" x2="883.96" y2="688.44"/>
  <polyline class="cls-4" points="889.86 522.55 908.55 506.45 987.38 506.45"/>
  <text class="cls-12" transform="translate(967.45 504.47)"><tspan x="0" y="0">R4.75</tspan></text>
  <path class="cls-9" d="M243.16,336.06h11.88s-.14,18.96-.14,18.96c0,.99.79,1.79,1.78,1.79l139.08-.53c.98,0,1.77-.8,1.77-1.77v-111.69c0-.98-.79-1.77-1.77-1.77l-139.21-.07c-.99,0-1.79.81-1.77,1.8l.32,18.64-9.33-.08h-2.51l-.08-.08v.76h-3.11v6.08h-20.92l-.51.08-.42.18-.42.17-.33.33-.35.33-.17.41-.17.43v14.94h-13.69v.33h-.18v.5h.1v.1h.08v.5h-.18v-.33h-29.99v25.3h30.17v.41h-.08v.08h-.1v.41h.18v.25h13.69v14.79l.33.83.35.33.33.34.42.25.42.08.51.08h20.92v6.1h3.11v.74"/>
  <g>
    <line class="cls-5" x1="245.71" y1="336.15" x2="245.71" y2="336.57"/>
    <line class="cls-5" x1="245.71" y1="261.76" x2="245.71" y2="262.43"/>
    <polyline class="cls-5" points="243.12 335.48 243.2 335.65 243.37 335.73 243.54 335.82 243.87 335.9 244.29 335.99 244.71 336.07 245.21 336.15 245.71 336.15"/>
    <line class="cls-5" x1="245.71" y1="336.15" x2="254.98" y2="336.32"/>
    <polyline class="cls-5" points="245.71 334.82 245.21 334.82 244.71 334.82 244.29 334.9 243.87 334.98 243.54 335.07 243.37 335.15 243.2 335.32 243.12 335.4"/>
    <line class="cls-5" x1="245.71" y1="333.98" x2="245.71" y2="334.82"/>
    <line class="cls-5" x1="254.98" y1="334.65" x2="245.71" y2="334.82"/>
    <polyline class="cls-5" points="243.12 263.26 243.2 263.43 243.37 263.59 243.54 263.68 243.87 263.84 244.29 263.93 244.71 264.01 245.21 264.01 245.71 264.1"/>
    <line class="cls-5" x1="254.98" y1="262.26" x2="245.71" y2="262.43"/>
    <polyline class="cls-5" points="245.71 262.43 245.21 262.43 244.71 262.51 244.29 262.59 243.87 262.68 243.54 262.76 243.37 262.93 243.2 263.01 243.12 263.18"/>
    <line class="cls-5" x1="245.71" y1="264.1" x2="254.98" y2="264.26"/>
    <line class="cls-5" x1="245.71" y1="264.1" x2="245.71" y2="264.85"/>
    <line class="cls-5" x1="243.12" y1="331.89" x2="243.12" y2="331.23"/>
    <line class="cls-5" x1="243.12" y1="332.06" x2="243.12" y2="331.89"/>
    <polyline class="cls-5" points="243.12 332.06 243.2 332.31 243.37 332.56 243.54 332.73 243.87 332.9 244.29 333.06 244.71 333.23 245.21 333.31 245.71 333.31"/>
    <line class="cls-5" x1="245.71" y1="333.31" x2="254.98" y2="333.65"/>
    <polyline class="cls-5" points="245.71 330.56 245.21 330.64 244.71 330.72 244.29 330.81 243.87 330.98 243.54 331.23 243.37 331.39 243.2 331.64 243.12 331.89"/>
    <line class="cls-5" x1="245.71" y1="329.89" x2="245.71" y2="330.56"/>
    <line class="cls-5" x1="254.98" y1="330.31" x2="245.71" y2="330.56"/>
    <line class="cls-5" x1="243.12" y1="267.94" x2="243.12" y2="267.35"/>
    <line class="cls-5" x1="245.71" y1="268.77" x2="245.71" y2="269.44"/>
    <line class="cls-5" x1="243.12" y1="267.35" x2="243.12" y2="267.1"/>
    <polyline class="cls-5" points="243.12 267.35 243.2 267.6 243.37 267.85 243.54 268.1 243.87 268.27 244.29 268.44 244.71 268.6 245.21 268.69 245.71 268.77"/>
    <line class="cls-5" x1="245.71" y1="268.77" x2="254.98" y2="269.11"/>
    <line class="cls-5" x1="254.98" y1="265.35" x2="245.71" y2="265.68"/>
    <polyline class="cls-5" points="245.71 265.68 245.21 265.77 244.71 265.85 244.29 265.93 243.87 266.18 243.54 266.35 243.37 266.6 243.2 266.85 243.12 267.1"/>
    <line class="cls-5" x1="243.12" y1="326.13" x2="243.12" y2="325.55"/>
    <line class="cls-5" x1="243.12" y1="326.38" x2="243.12" y2="326.13"/>
    <polyline class="cls-5" points="243.12 326.38 243.2 326.72 243.37 327.05 243.54 327.39 243.87 327.64 244.29 327.89 244.71 328.05 245.21 328.14 245.71 328.22"/>
    <line class="cls-5" x1="245.71" y1="328.22" x2="254.98" y2="328.64"/>
    <polyline class="cls-5" points="245.71 324.21 245.21 324.3 244.71 324.38 244.29 324.63 243.87 324.8 243.54 325.13 243.37 325.38 243.2 325.72 243.12 326.13"/>
    <line class="cls-5" x1="245.71" y1="323.63" x2="245.71" y2="324.21"/>
    <line class="cls-5" x1="254.98" y1="323.79" x2="245.71" y2="324.21"/>
    <line class="cls-5" x1="243.12" y1="273.95" x2="243.12" y2="273.53"/>
    <line class="cls-5" x1="245.71" y1="275.45" x2="245.71" y2="276.04"/>
    <line class="cls-5" x1="243.12" y1="273.53" x2="243.12" y2="273.2"/>
    <polyline class="cls-5" points="243.12 273.53 243.2 273.86 243.37 274.2 243.54 274.53 243.87 274.87 244.29 275.12 244.71 275.28 245.21 275.37 245.71 275.45"/>
    <line class="cls-5" x1="245.71" y1="275.45" x2="254.98" y2="275.95"/>
    <line class="cls-5" x1="254.98" y1="270.77" x2="245.71" y2="271.28"/>
    <polyline class="cls-5" points="245.71 271.28 245.21 271.36 244.71 271.44 244.29 271.61 243.87 271.86 243.54 272.19 243.37 272.53 243.2 272.86 243.12 273.2"/>
    <line class="cls-5" x1="243.12" y1="318.45" x2="243.12" y2="318.12"/>
    <line class="cls-5" x1="243.12" y1="318.79" x2="243.12" y2="318.45"/>
    <polyline class="cls-5" points="243.12 318.79 243.2 319.2 243.37 319.62 243.54 320.04 243.87 320.37 244.29 320.71 244.71 320.87 245.21 321.04 245.71 321.12"/>
    <line class="cls-5" x1="245.71" y1="321.12" x2="254.98" y2="321.71"/>
    <polyline class="cls-5" points="245.71 316.2 245.21 316.28 244.71 316.36 244.29 316.61 243.87 316.95 243.54 317.28 243.37 317.62 243.2 318.03 243.12 318.45"/>
    <line class="cls-5" x1="245.71" y1="315.78" x2="245.71" y2="316.2"/>
    <line class="cls-5" x1="254.98" y1="315.61" x2="245.71" y2="316.2"/>
    <line class="cls-5" x1="245.71" y1="283.8" x2="245.71" y2="284.22"/>
    <line class="cls-5" x1="243.12" y1="281.8" x2="243.12" y2="281.46"/>
    <line class="cls-5" x1="243.12" y1="281.46" x2="243.12" y2="281.13"/>
    <polyline class="cls-5" points="243.12 281.46 243.2 281.88 243.37 282.3 243.54 282.71 243.87 283.05 244.29 283.38 244.71 283.55 245.21 283.72 245.71 283.8"/>
    <line class="cls-5" x1="245.71" y1="283.8" x2="254.98" y2="284.38"/>
    <line class="cls-5" x1="254.98" y1="278.12" x2="245.71" y2="278.71"/>
    <polyline class="cls-5" points="245.71 278.71 245.21 278.79 244.71 278.96 244.29 279.21 243.87 279.46 243.54 279.79 243.37 280.21 243.2 280.63 243.12 281.13"/>
    <line class="cls-5" x1="243.12" y1="309.52" x2="243.12" y2="309.35"/>
    <line class="cls-5" x1="245.71" y1="306.68" x2="245.71" y2="306.93"/>
    <line class="cls-5" x1="243.12" y1="309.93" x2="243.12" y2="309.52"/>
    <polyline class="cls-5" points="243.12 309.93 243.2 310.44 243.37 310.85 243.54 311.27 243.87 311.69 244.29 312.02 244.71 312.27 245.21 312.44 245.71 312.52"/>
    <line class="cls-5" x1="245.71" y1="312.52" x2="254.98" y2="313.11"/>
    <line class="cls-5" x1="254.98" y1="306.34" x2="245.71" y2="306.93"/>
    <polyline class="cls-5" points="245.71 306.93 245.21 307.01 244.71 307.18 244.29 307.43 243.87 307.76 243.54 308.18 243.37 308.6 243.2 309.1 243.12 309.52"/>
    <line class="cls-5" x1="245.71" y1="293.24" x2="245.71" y2="293.4"/>
    <line class="cls-5" x1="243.12" y1="290.73" x2="243.12" y2="290.56"/>
    <line class="cls-5" x1="243.12" y1="290.56" x2="243.12" y2="290.23"/>
    <polyline class="cls-5" points="243.12 290.56 243.2 291.06 243.37 291.57 243.54 291.98 243.87 292.4 244.29 292.73 244.71 292.98 245.21 293.15 245.71 293.24"/>
    <line class="cls-5" x1="245.71" y1="293.24" x2="254.98" y2="293.82"/>
    <line class="cls-5" x1="254.98" y1="286.89" x2="245.71" y2="287.56"/>
    <polyline class="cls-5" points="245.71 287.56 245.21 287.64 244.71 287.81 244.29 288.06 243.87 288.39 243.54 288.81 243.37 289.23 243.2 289.73 243.12 290.23"/>
    <line class="cls-5" x1="243.12" y1="300.25" x2="243.12" y2="299.91"/>
    <polyline class="cls-5" points="243.12 300.25 243.2 300.75 243.37 301.25 243.54 301.75 243.87 302.17 244.29 302.5 244.71 302.75 245.21 302.92 245.71 303"/>
    <line class="cls-5" x1="245.71" y1="303" x2="254.98" y2="303.67"/>
    <line class="cls-5" x1="254.98" y1="296.58" x2="245.71" y2="297.16"/>
    <polyline class="cls-5" points="245.71 297.16 245.21 297.24 244.71 297.49 244.29 297.74 243.87 298.08 243.54 298.5 243.37 298.91 243.2 299.41 243.12 299.91"/>
    <polyline class="cls-5" points="243.12 334.73 243.29 334.48 243.71 334.32 244.46 334.06 245.29 333.98 245.71 333.98"/>
    <line class="cls-5" x1="254.98" y1="333.73" x2="245.71" y2="333.98"/>
    <polyline class="cls-5" points="243.12 331.23 243.29 330.81 243.71 330.39 244.46 330.06 245.29 329.89 245.71 329.89"/>
    <line class="cls-5" x1="254.98" y1="329.47" x2="245.71" y2="329.89"/>
    <polyline class="cls-5" points="243.12 325.55 243.29 324.96 243.71 324.38 244.46 323.96 245.29 323.71 245.71 323.63"/>
    <line class="cls-5" x1="254.98" y1="323.13" x2="245.71" y2="323.63"/>
    <polyline class="cls-5" points="243.12 318.12 243.29 317.37 243.71 316.61 244.46 316.11 245.29 315.78 245.71 315.78"/>
    <line class="cls-5" x1="254.98" y1="315.19" x2="245.71" y2="315.78"/>
    <polyline class="cls-5" points="243.12 309.35 243.29 308.51 243.71 307.68 244.46 307.1 245.29 306.76 245.71 306.68"/>
    <line class="cls-5" x1="254.98" y1="306.09" x2="245.71" y2="306.68"/>
    <polyline class="cls-5" points="243.12 299.91 243.29 299 243.71 298.16 244.46 297.58 245.29 297.24 245.71 297.16"/>
    <line class="cls-5" x1="254.98" y1="296.49" x2="245.71" y2="297.16"/>
    <line class="cls-5" x1="245.71" y1="293.4" x2="254.98" y2="294.07"/>
    <polyline class="cls-5" points="245.71 293.4 244.79 293.15 244.04 292.65 243.46 291.98 243.2 291.15 243.12 290.73"/>
    <line class="cls-5" x1="245.71" y1="284.22" x2="254.98" y2="284.8"/>
    <polyline class="cls-5" points="245.71 284.22 244.79 284.05 244.04 283.55 243.46 282.88 243.2 282.13 243.12 281.8"/>
    <line class="cls-5" x1="245.71" y1="276.04" x2="254.98" y2="276.54"/>
    <polyline class="cls-5" points="245.71 276.04 244.79 275.87 244.04 275.45 243.46 274.95 243.2 274.28 243.12 273.95"/>
    <line class="cls-5" x1="245.71" y1="269.44" x2="254.98" y2="269.86"/>
    <polyline class="cls-5" points="245.71 269.44 244.79 269.27 244.04 269.02 243.46 268.6 243.2 268.1 243.12 267.94"/>
    <line class="cls-5" x1="245.71" y1="264.85" x2="254.98" y2="265.1"/>
    <polyline class="cls-5" points="245.71 264.85 244.79 264.76 244.04 264.6 243.46 264.35 243.2 264.1 243.12 264.01"/>
    <polyline class="cls-5" points="244.37 262.59 244.04 262.51 243.46 262.51 243.2 262.43 243.12 262.43"/>
  </g>
  <line class="cls-5" x1="173.27" y1="285.87" x2="203.08" y2="285.87"/>
  <line class="cls-5" x1="203.08" y1="286.12" x2="173.27" y2="286.12"/>
  <polyline class="cls-5" points="173.27 286.12 173.27 286.12 173.27 286.21"/>
  <line class="cls-5" x1="173.27" y1="286.29" x2="173.27" y2="286.21"/>
  <line class="cls-5" x1="203.08" y1="310.76" x2="173.27" y2="310.76"/>
  <polyline class="cls-5" points="173.27 309.42 173.27 309.59 173.27 309.75 173.27 309.92 173.27 310.09 173.27 310.17 173.27 310.34 173.27 310.42"/>
  <line class="cls-5" x1="173.27" y1="310.42" x2="203.08" y2="310.42"/>
  <line class="cls-5" x1="173.27" y1="288.71" x2="203.08" y2="288.71"/>
  <line class="cls-5" x1="203.08" y1="289.05" x2="173.27" y2="289.05"/>
  <polyline class="cls-5" points="173.27 290.97 173.19 290.97 173.11 290.97 173.11 291.05 173.02 291.05 173.02 291.13"/>
  <line class="cls-5" x1="203.08" y1="306" x2="173.27" y2="306"/>
  <polyline class="cls-5" points="173.27 291.05 173.27 291.05 173.27 290.97"/>
  <polyline class="cls-5" points="173.27 303.32 173.27 303.32 173.27 303.24"/>
  <polyline class="cls-5" points="173.27 303.24 173.27 303.24 173.27 303.16 173.27 303.07"/>
  <line class="cls-5" x1="194.82" y1="303.32" x2="173.27" y2="303.32"/>
  <line class="cls-5" x1="173.27" y1="305.66" x2="196.23" y2="305.66"/>
  <line class="cls-5" x1="173.27" y1="295.31" x2="194.82" y2="295.31"/>
  <line class="cls-5" x1="194.82" y1="295.64" x2="173.27" y2="295.64"/>
  <line class="cls-5" x1="173.27" y1="298.23" x2="194.82" y2="298.23"/>
  <line class="cls-5" x1="194.82" y1="298.73" x2="173.27" y2="298.73"/>
  <line class="cls-5" x1="173.27" y1="303.07" x2="194.82" y2="303.07"/>
  <line class="cls-5" x1="203.08" y1="306.33" x2="173.27" y2="306.33"/>
  <line class="cls-5" x1="173.27" y1="309.42" x2="203.08" y2="309.42"/>
  <line class="cls-5" x1="203.08" y1="311.01" x2="173.27" y2="311.01"/>
  <polyline class="cls-5" points="173.27 311.01 173.27 311.17 173.27 311.34 173.27 311.42 173.27 311.51 173.27 311.59"/>
  <line class="cls-5" x1="173.27" y1="285.62" x2="203.08" y2="285.62"/>
  <line class="cls-5" x1="203.08" y1="286.29" x2="173.27" y2="286.29"/>
  <line class="cls-5" x1="173.27" y1="288.38" x2="203.08" y2="288.38"/>
  <line class="cls-5" x1="203.08" y1="291.05" x2="173.27" y2="291.05"/>
  <line class="cls-5" x1="173.27" y1="295.06" x2="194.82" y2="295.06"/>
  <polyline class="cls-7" points="196.73 292.74 196.73 292.83 196.73 293.08 196.73 293.58 196.73 294.25 196.73 295.08 196.73 296.08 196.73 297.17 196.73 298.34 196.73 299.59"/>
  <polyline class="cls-5" points="172.61 306.33 172.61 306.25 172.61 306.08 172.61 305.58 172.61 304.99 172.61 304.16 172.61 303.16 172.61 302.07 172.61 300.9 172.61 299.57 172.61 298.31 172.61 296.98 172.61 295.73 172.61 294.56 172.61 293.56 172.61 292.64 172.61 291.89 172.61 291.38 172.61 291.05 172.61 290.88"/>
  <polyline class="cls-5" points="173.02 285.79 173.02 285.79 173.02 285.71 173.11 285.71 173.11 285.62 173.19 285.62 173.27 285.62"/>
  <polyline class="cls-5" points="173.27 285.62 173.27 285.62 173.27 285.71 173.27 285.79 173.27 285.87"/>
  <polyline class="cls-5" points="173.02 285.79 173.02 285.96 173.02 286.04 173.02 286.12 173.02 286.21 173.02 286.29"/>
  <polyline class="cls-5" points="173.27 286.12 173.27 286.12 173.27 286.04 173.27 285.96 173.27 285.87"/>
  <polyline class="cls-5" points="173.02 285.79 173.02 285.79 173.02 285.87 173.11 285.87 173.19 285.87 173.27 285.87"/>
  <polyline class="cls-5" points="173.02 286.46 173.02 286.46 173.02 286.37 173.02 286.29"/>
  <polyline class="cls-5" points="173.02 286.29 173.02 286.29 173.02 286.21 173.11 286.21 173.11 286.12 173.19 286.12 173.27 286.12"/>
  <polyline class="cls-5" points="173.02 311.34 173.02 311.34 173.02 311.26 173.02 311.17 173.02 311.09 173.02 310.92 173.02 310.76"/>
  <polyline class="cls-5" points="173.27 311.01 173.27 311.01 173.27 310.92 173.27 310.84 173.27 310.76"/>
  <polyline class="cls-5" points="173.27 311.01 173.19 311.01 173.11 311.01 173.11 310.92 173.02 310.84 173.02 310.76"/>
  <polyline class="cls-5" points="173.02 310.17 173.02 310.25 173.02 310.34 173.02 310.42 173.02 310.51 173.02 310.59 173.02 310.67 173.02 310.76"/>
  <polyline class="cls-5" points="173.27 310.76 173.19 310.76 173.11 310.76 173.02 310.76"/>
  <polyline class="cls-5" points="173.27 310.76 173.27 310.67 173.27 310.59 173.27 310.51 173.27 310.42"/>
  <polyline class="cls-5" points="173.02 310.17 173.02 310.09 173.02 309.92 173.02 309.84 173.02 309.67 173.02 309.59 173.02 309.42 173.02 309.25"/>
  <polyline class="cls-5" points="173.27 310.42 173.19 310.42 173.11 310.42 173.11 310.34 173.02 310.25 173.02 310.17"/>
  <polyline class="cls-5" points="173.02 288.55 173.02 288.21 173.02 287.88 173.02 287.63 173.02 287.38 173.02 287.13 173.02 286.88 173.02 286.71 173.02 286.46"/>
  <polyline class="cls-5" points="173.27 286.29 173.19 286.29 173.11 286.29 173.11 286.37 173.02 286.37 173.02 286.46"/>
  <polyline class="cls-5" points="173.02 288.55 173.02 288.55 173.02 288.46 173.11 288.46 173.11 288.38 173.19 288.38 173.27 288.38"/>
  <polyline class="cls-5" points="173.27 288.38 173.27 288.38 173.27 288.46 173.27 288.55 173.27 288.63 173.27 288.71"/>
  <polyline class="cls-5" points="173.02 288.55 173.02 288.63 173.02 288.71 173.02 288.8 173.02 288.88 173.02 288.96 173.02 289.05 173.02 289.13 173.02 289.21"/>
  <polyline class="cls-5" points="173.27 288.71 173.19 288.71 173.11 288.71 173.11 288.63 173.02 288.63 173.02 288.55"/>
  <polyline class="cls-5" points="173.27 289.05 173.27 288.96 173.27 288.88 173.27 288.8 173.27 288.71"/>
  <polyline class="cls-5" points="173.02 291.13 173.02 290.8 173.02 290.55 173.02 290.38 173.02 290.13 173.02 289.88 173.02 289.63 173.02 289.46 173.02 289.21"/>
  <polyline class="cls-5" points="173.27 289.05 173.19 289.05 173.11 289.05 173.11 289.13 173.02 289.13 173.02 289.21"/>
  <polyline class="cls-5" points="173.27 289.05 173.27 289.21 173.27 289.46 173.27 289.71 173.27 289.97 173.27 290.22 173.27 290.47 173.27 290.72 173.27 290.97"/>
  <polyline class="cls-5" points="173.02 291.13 173.02 291.13 173.02 291.22"/>
  <polyline class="cls-5" points="173.02 305.58 173.02 305.66 173.02 305.75 173.02 305.83 173.02 305.91 173.02 306 173.02 306.08 173.02 306.16 173.02 306.25"/>
  <polyline class="cls-5" points="173.27 306 173.27 306 173.27 305.91 173.27 305.83 173.27 305.75 173.27 305.66"/>
  <polyline class="cls-5" points="173.02 309.25 173.02 308.92 173.02 308.58 173.02 308.25 173.02 307.83 173.02 307.5 173.02 307.08 173.02 306.66 173.02 306.25"/>
  <polyline class="cls-5" points="173.02 309.25 173.02 309.25 173.11 309.34 173.11 309.42 173.19 309.42 173.27 309.42"/>
  <polyline class="cls-5" points="173.27 306 173.19 306 173.11 306.08 173.02 306.16 173.02 306.25"/>
  <polyline class="cls-5" points="173.27 306.33 173.19 306.33 173.11 306.33 173.11 306.25 173.02 306.25"/>
  <polyline class="cls-5" points="173.27 306 173.27 306.08 173.27 306.16 173.27 306.25 173.27 306.33"/>
  <polyline class="cls-5" points="173.02 302.99 173.02 302.99 173.02 303.07 173.02 303.16 173.02 303.24"/>
  <polyline class="cls-5" points="173.02 305.58 173.02 305.25 173.02 304.99 173.02 304.74 173.02 304.41 173.02 304.16 173.02 303.83 173.02 303.58 173.02 303.24"/>
  <polyline class="cls-5" points="173.27 303.32 173.19 303.32 173.11 303.32 173.02 303.32 173.02 303.24"/>
  <polyline class="cls-5" points="173.27 305.66 173.19 305.66 173.11 305.66 173.02 305.58"/>
  <polyline class="cls-5" points="173.27 303.32 173.27 303.66 173.27 303.99 173.27 304.24 173.27 304.58 173.27 304.83 173.27 305.16 173.27 305.41 173.27 305.66"/>
  <polyline class="cls-5" points="173.02 295.14 173.02 295.14 173.02 295.23 173.02 295.31 173.02 295.39 173.02 295.48 173.02 295.56 173.02 295.64"/>
  <polyline class="cls-5" points="173.27 295.64 173.27 295.56 173.27 295.48 173.27 295.39 173.27 295.31"/>
  <polyline class="cls-5" points="173.27 295.31 173.19 295.31 173.11 295.31 173.11 295.23 173.02 295.23 173.02 295.14"/>
  <polyline class="cls-5" points="173.27 295.06 173.27 295.06 173.27 295.14 173.27 295.23 173.27 295.31"/>
  <polyline class="cls-5" points="173.02 298.23 173.02 298.31 173.02 298.4 173.02 298.48 173.02 298.57 173.02 298.65 173.02 298.73"/>
  <polyline class="cls-5" points="173.27 298.48 173.27 298.48 173.27 298.4 173.27 298.31 173.27 298.23"/>
  <line class="cls-5" x1="194.82" y1="298.48" x2="173.27" y2="298.48"/>
  <polyline class="cls-5" points="173.27 298.73 173.27 298.65 173.27 298.57 173.27 298.48"/>
  <polyline class="cls-5" points="173.27 298.48 173.19 298.48 173.11 298.48 173.11 298.57 173.02 298.65 173.02 298.73"/>
  <polyline class="cls-5" points="173.02 295.14 173.02 294.56 173.02 294.06 173.02 293.56 173.02 293.05 173.02 292.55 173.02 292.14 173.02 291.64 173.02 291.22"/>
  <polyline class="cls-5" points="173.02 295.14 173.02 295.14 173.02 295.06 173.11 295.06 173.19 295.06 173.27 295.06"/>
  <polyline class="cls-5" points="173.27 291.05 173.19 291.05 173.11 291.05 173.11 291.13 173.02 291.13 173.02 291.22"/>
  <polyline class="cls-5" points="173.02 298.23 173.02 297.9 173.02 297.65 173.02 297.31 173.02 296.98 173.02 296.64 173.02 296.31 173.02 295.98 173.02 295.64"/>
  <polyline class="cls-5" points="173.27 295.64 173.19 295.64 173.11 295.64 173.02 295.64"/>
  <polyline class="cls-5" points="173.27 298.23 173.19 298.23 173.11 298.23 173.02 298.23"/>
  <polyline class="cls-5" points="173.27 295.64 173.27 295.98 173.27 296.31 173.27 296.56 173.27 296.9 173.27 297.23 173.27 297.56 173.27 297.9 173.27 298.23"/>
  <polyline class="cls-5" points="173.02 302.99 173.02 302.49 173.02 301.99 173.02 301.4 173.02 300.9 173.02 300.32 173.02 299.82 173.02 299.23 173.02 298.73"/>
  <polyline class="cls-5" points="173.02 302.99 173.02 302.99 173.02 303.07 173.11 303.07 173.19 303.07 173.27 303.07"/>
  <polyline class="cls-5" points="173.27 298.73 173.19 298.73 173.11 298.73 173.02 298.73"/>
  <polyline class="cls-5" points="173.27 298.73 173.27 299.32 173.27 299.82 173.27 300.4 173.27 300.9 173.27 301.49 173.27 301.99 173.27 302.57 173.27 303.07"/>
  <polyline class="cls-5" points="173.27 306.33 173.27 306.83 173.27 307.25 173.27 307.67 173.27 308 173.27 308.42 173.27 308.75 173.27 309.09 173.27 309.42"/>
  <polyline class="cls-5" points="173.27 286.29 173.27 286.46 173.27 286.63 173.27 286.88 173.27 287.13 173.27 287.46 173.27 287.71 173.27 288.04 173.27 288.38"/>
  <polyline class="cls-5" points="173.27 291.05 173.27 291.47 173.27 291.97 173.27 292.47 173.27 292.97 173.27 293.47 173.27 293.97 173.27 294.47 173.27 295.06"/>
  <line class="cls-5" x1="173.02" y1="290.88" x2="172.61" y2="290.88"/>
  <line class="cls-5" x1="172.61" y1="306.33" x2="173.02" y2="306.33"/>
  <polyline class="cls-5" points="173.27 285.62 173.19 285.62 173.11 285.62 173.11 285.71 173.02 285.71 173.02 285.79"/>
  <polyline class="cls-5" points="173.02 311.34 173.02 311.42 173.02 311.51 173.11 311.51 173.11 311.59 173.19 311.59 173.27 311.59"/>
  <line class="cls-5" x1="203.08" y1="286.21" x2="173.27" y2="286.21"/>
  <polyline class="cls-5" points="173.27 286.21 173.19 286.29 173.11 286.29 173.11 286.37 173.02 286.37 173.02 286.46"/>
  <line class="cls-5" x1="173.27" y1="309.42" x2="203.08" y2="309.42"/>
  <polyline class="cls-5" points="173.02 309.25 173.02 309.25 173.02 309.34 173.11 309.34 173.11 309.42 173.19 309.42 173.27 309.42"/>
  <line class="cls-5" x1="203.08" y1="290.97" x2="173.27" y2="290.97"/>
  <polyline class="cls-5" points="173.27 290.97 173.19 290.97 173.11 290.97 173.11 291.05 173.02 291.13 173.02 291.22"/>
  <polyline class="cls-5" points="173.02 302.99 173.02 303.07 173.11 303.16 173.11 303.24 173.19 303.24 173.27 303.24"/>
  <line class="cls-5" x1="173.27" y1="311.59" x2="203.08" y2="311.59"/>
  <line class="cls-5" x1="203.08" y1="285.62" x2="173.27" y2="285.62"/>
  <line class="cls-5" x1="216.9" y1="312.34" x2="203.29" y2="312.34"/>
  <line class="cls-5" x1="203.29" y1="286.79" x2="216.9" y2="286.79"/>
  <line class="cls-5" x1="203.29" y1="312.17" x2="216.9" y2="312.17"/>
  <line class="cls-5" x1="216.9" y1="286.96" x2="203.29" y2="286.96"/>
  <line class="cls-5" x1="216.9" y1="311.09" x2="203.29" y2="311.09"/>
  <line class="cls-5" x1="203.29" y1="288.21" x2="216.9" y2="288.21"/>
  <line class="cls-5" x1="203.29" y1="310.92" x2="216.9" y2="310.92"/>
  <line class="cls-5" x1="216.9" y1="288.38" x2="203.29" y2="288.38"/>
  <line class="cls-5" x1="216.9" y1="309.34" x2="203.29" y2="309.34"/>
  <line class="cls-5" x1="203.29" y1="309.17" x2="216.9" y2="309.17"/>
  <line class="cls-5" x1="216.65" y1="307.17" x2="203.29" y2="307.17"/>
  <line class="cls-5" x1="203.29" y1="307" x2="216.65" y2="307"/>
  <line class="cls-5" x1="216.65" y1="304.58" x2="203.29" y2="304.58"/>
  <line class="cls-5" x1="203.29" y1="304.49" x2="216.9" y2="304.49"/>
  <line class="cls-5" x1="216.9" y1="289.21" x2="203.12" y2="289.21"/>
  <line class="cls-5" x1="203.29" y1="303.57" x2="216.9" y2="303.57"/>
  <line class="cls-5" x1="203.29" y1="304.66" x2="216.65" y2="304.66"/>
  <line class="cls-5" x1="203.29" y1="306.25" x2="216.65" y2="306.25"/>
  <line class="cls-5" x1="203.29" y1="307.25" x2="216.65" y2="307.25"/>
  <line class="cls-5" x1="203.29" y1="308.67" x2="216.9" y2="308.67"/>
  <line class="cls-5" x1="203.29" y1="309.5" x2="216.9" y2="309.5"/>
  <line class="cls-5" x1="203.29" y1="310.59" x2="216.9" y2="310.59"/>
  <line class="cls-5" x1="203.29" y1="311.26" x2="216.9" y2="311.26"/>
  <line class="cls-5" x1="203.29" y1="312.09" x2="216.9" y2="312.09"/>
  <line class="cls-5" x1="203.29" y1="285.71" x2="216.9" y2="285.71"/>
  <line class="cls-5" x1="203.29" y1="286.63" x2="216.9" y2="286.63"/>
  <line class="cls-5" x1="203.29" y1="287.13" x2="216.9" y2="287.13"/>
  <line class="cls-5" x1="203.29" y1="288.04" x2="216.9" y2="288.04"/>
  <line class="cls-5" x1="203.29" y1="288.71" x2="216.9" y2="288.71"/>
  <polygon class="cls-9" points="397.87 482.09 397.87 673.05 397.78 673.29 397.7 673.56 397.53 673.72 397.37 673.8 397.2 673.97 396.95 674.05 256.09 674.05 255.93 673.97 255.68 673.8 255.51 673.72 255.33 673.56 255.25 673.29 255.17 673.05 255.17 568.34 245.4 568.34 244.9 568.26 243.32 568.26 243.32 567.51 240.23 567.51 240.23 561.42 231.96 561.42 231.96 650.17 219.44 650.17 218.94 650.09 218.51 649.93 218.1 649.76 217.77 649.41 217.44 649.08 217.27 648.67 217.09 648.26 217.09 646.08 214.93 646.08 214.93 649.08 214.84 649.08 214.84 649.17 173.35 649.17 173.35 649.08 173.27 649 173.27 643.83 172.85 643.83 172.85 628.46 173.27 628.46 173.27 623.29 173.35 623.29 173.35 623.2 173.43 623.2 173.43 623.12 214.76 623.12 214.76 623.2 214.84 623.2 214.93 623.29 214.93 626.21 217.09 626.21 217.09 544.71 203.33 544.71 203.33 544.38 203.49 544.38 203.49 544.05 203.33 544.05 203.33 543.47 203.41 543.47 203.49 543.39 203.49 542.87 203.33 542.87 203.33 541.88 203.49 541.88 203.49 541.12 203.33 541.12 203.33 539.87 203.49 539.87 203.49 538.96 203.41 538.96 203.41 538.87 203.33 538.87 203.33 537.54 203.4 537.53 203.39 538.61 203.33 537.54 203.33 537.54 203.33 537.52 198.57 537.52 198.57 537.54 196.55 537.54 196.22 537.37 195.89 537.21 195.64 536.96 195.39 536.69 195.06 536.03 195.06 525.85 195.23 525.42 195.39 525.09 195.89 524.6 196.22 524.43 196.55 524.35 196.98 524.27 203.33 524.27 203.33 523.51 203.49 523.51 203.49 522.5 203.33 522.5 203.33 521.26 203.41 521.18 203.49 521.18 203.49 520.33 203.33 520.33 203.33 519.33 203.49 519.33 203.49 518.66 203.33 518.66 203.33 517.92 203.49 517.92 203.49 517.49 217.09 517.49 217.09 502.22 217.27 501.79 217.44 501.38 217.77 501.05 218.1 500.72 218.51 500.47 218.94 500.39 219.44 500.29 240.23 500.29 240.23 494.21 243.32 494.21 243.32 493.45 243.4 493.45 243.57 493.53 255.17 493.53 255.17 482.09 255.25 481.85 255.33 481.68 255.51 481.51 255.68 481.35 255.93 481.25 256.09 481.17 396.95 481.17 397.2 481.25 397.37 481.35 397.53 481.51 397.7 481.68 397.78 481.85 397.87 482.09"/>
  <line class="cls-6" x1="245.51" y1="494.03" x2="245.51" y2="494.7"/>
  <line class="cls-6" x1="216.71" y1="543.71" x2="203.1" y2="543.71"/>
  <line class="cls-6" x1="203.1" y1="543.55" x2="216.71" y2="543.55"/>
  <line class="cls-6" x1="216.71" y1="519.5" x2="203.1" y2="519.5"/>
  <line class="cls-6" x1="216.71" y1="542.21" x2="203.1" y2="542.21"/>
  <line class="cls-6" x1="203.1" y1="521" x2="216.46" y2="521"/>
  <line class="cls-6" x1="203.1" y1="542.04" x2="216.71" y2="542.04"/>
  <line class="cls-6" x1="216.46" y1="521.17" x2="203.1" y2="521.17"/>
  <line class="cls-6" x1="216.71" y1="540.21" x2="203.1" y2="540.21"/>
  <line class="cls-6" x1="203.1" y1="540.04" x2="216.71" y2="540.04"/>
  <line class="cls-6" x1="203.1" y1="523.17" x2="216.46" y2="523.17"/>
  <line class="cls-6" x1="216.46" y1="523.34" x2="203.1" y2="523.34"/>
  <line class="cls-6" x1="216.71" y1="537.87" x2="203.1" y2="537.87"/>
  <line class="cls-6" x1="203.1" y1="537.7" x2="216.71" y2="537.7"/>
  <line class="cls-6" x1="203.1" y1="525.6" x2="216.71" y2="525.6"/>
  <line class="cls-6" x1="216.71" y1="525.76" x2="203.1" y2="525.76"/>
  <line class="cls-6" x1="216.71" y1="535.2" x2="203.1" y2="535.2"/>
  <line class="cls-6" x1="216.71" y1="534.11" x2="203.1" y2="534.11"/>
  <line class="cls-6" x1="203.1" y1="535.03" x2="216.71" y2="535.03"/>
  <line class="cls-6" x1="216.71" y1="528.43" x2="203.1" y2="528.43"/>
  <line class="cls-6" x1="203.1" y1="529.44" x2="216.71" y2="529.44"/>
  <line class="cls-6" x1="203.1" y1="528.35" x2="216.71" y2="528.35"/>
  <line class="cls-6" x1="216.71" y1="531.27" x2="203.1" y2="531.27"/>
  <line class="cls-6" x1="203.1" y1="532.27" x2="216.71" y2="532.27"/>
  <line class="cls-6" x1="216.71" y1="532.36" x2="203.1" y2="532.36"/>
  <line class="cls-6" x1="242.93" y1="567.68" x2="242.93" y2="567.01"/>
  <polyline class="cls-6" points="245.51 567.01 245.01 567.09 244.51 567.09 244.1 567.18 243.68 567.26 243.34 567.34 243.18 567.43 243.01 567.59 242.93 567.68"/>
  <line class="cls-6" x1="245.51" y1="566.26" x2="245.51" y2="567.01"/>
  <line class="cls-6" x1="254.78" y1="566.93" x2="245.51" y2="567.01"/>
  <line class="cls-6" x1="242.93" y1="496.2" x2="242.93" y2="495.54"/>
  <polyline class="cls-6" points="242.93 495.54 243.01 495.7 243.18 495.87 243.34 495.95 243.68 496.04 244.1 496.2 244.51 496.29 245.01 496.29 245.51 496.29"/>
  <line class="cls-6" x1="254.78" y1="494.45" x2="245.51" y2="494.7"/>
  <polyline class="cls-6" points="245.51 494.7 245.01 494.7 244.51 494.79 244.1 494.79 243.68 494.95 243.34 495.04 243.18 495.2 243.01 495.29 242.93 495.45"/>
  <line class="cls-6" x1="245.51" y1="496.29" x2="254.78" y2="496.54"/>
  <line class="cls-6" x1="245.51" y1="496.29" x2="245.51" y2="497.12"/>
  <line class="cls-6" x1="242.93" y1="564.17" x2="242.93" y2="563.5"/>
  <line class="cls-6" x1="242.93" y1="564.34" x2="242.93" y2="564.17"/>
  <polyline class="cls-6" points="242.93 564.34 243.01 564.59 243.18 564.75 243.34 565.01 243.68 565.17 244.1 565.34 244.51 565.51 245.01 565.59 245.51 565.59"/>
  <line class="cls-6" x1="245.51" y1="565.59" x2="254.78" y2="565.92"/>
  <polyline class="cls-6" points="245.51 562.83 245.01 562.92 244.51 563 244.1 563.08 243.68 563.25 243.34 563.42 243.18 563.67 243.01 563.92 242.93 564.17"/>
  <line class="cls-6" x1="245.51" y1="562.08" x2="245.51" y2="562.83"/>
  <line class="cls-6" x1="254.78" y1="562.5" x2="245.51" y2="562.83"/>
  <line class="cls-6" x1="242.93" y1="500.21" x2="242.93" y2="499.54"/>
  <line class="cls-6" x1="245.51" y1="500.96" x2="245.51" y2="501.72"/>
  <line class="cls-6" x1="242.93" y1="499.54" x2="242.93" y2="499.38"/>
  <polyline class="cls-6" points="242.93 499.54 243.01 499.79 243.18 500.13 243.34 500.3 243.68 500.55 244.1 500.71 244.51 500.88 245.01 500.96 245.51 500.96"/>
  <line class="cls-6" x1="245.51" y1="500.96" x2="254.78" y2="501.3"/>
  <polyline class="cls-6" points="245.51 497.96 245.01 498.04 244.51 498.12 244.1 498.21 243.68 498.38 243.34 498.63 243.18 498.88 243.01 499.13 242.93 499.38"/>
  <line class="cls-6" x1="242.93" y1="558.33" x2="242.93" y2="557.82"/>
  <line class="cls-6" x1="242.93" y1="558.58" x2="242.93" y2="558.33"/>
  <polyline class="cls-6" points="242.93 558.58 243.01 558.99 243.18 559.33 243.34 559.58 243.68 559.91 244.1 560.16 244.51 560.33 245.01 560.41 245.51 560.5"/>
  <line class="cls-6" x1="245.51" y1="560.5" x2="254.78" y2="560.91"/>
  <polyline class="cls-6" points="245.51 556.49 245.01 556.57 244.51 556.66 244.1 556.82 243.68 557.07 243.34 557.32 243.18 557.66 243.01 557.99 242.93 558.33"/>
  <line class="cls-6" x1="245.51" y1="555.9" x2="245.51" y2="556.49"/>
  <line class="cls-6" x1="254.78" y1="556.07" x2="245.51" y2="556.49"/>
  <line class="cls-6" x1="242.93" y1="506.22" x2="242.93" y2="505.72"/>
  <line class="cls-6" x1="245.51" y1="507.73" x2="245.51" y2="508.31"/>
  <line class="cls-6" x1="242.93" y1="505.72" x2="242.93" y2="505.47"/>
  <polyline class="cls-6" points="242.93 505.72 243.01 506.14 243.18 506.47 243.34 506.81 243.68 507.14 244.1 507.31 244.51 507.56 245.01 507.64 245.51 507.73"/>
  <line class="cls-6" x1="245.51" y1="507.73" x2="254.78" y2="508.23"/>
  <line class="cls-6" x1="254.78" y1="503.05" x2="245.51" y2="503.55"/>
  <polyline class="cls-6" points="245.51 503.55 245.01 503.55 244.51 503.72 244.1 503.89 243.68 504.14 243.34 504.47 243.18 504.8 243.01 505.14 242.93 505.47"/>
  <line class="cls-6" x1="242.93" y1="550.73" x2="242.93" y2="550.39"/>
  <line class="cls-6" x1="242.93" y1="551.06" x2="242.93" y2="550.73"/>
  <polyline class="cls-6" points="242.93 551.06 243.01 551.48 243.18 551.9 243.34 552.31 243.68 552.65 244.1 552.9 244.51 553.15 245.01 553.32 245.51 553.4"/>
  <line class="cls-6" x1="245.51" y1="553.4" x2="254.78" y2="553.9"/>
  <polyline class="cls-6" points="245.51 548.47 245.01 548.47 244.51 548.64 244.1 548.89 243.68 549.14 243.34 549.47 243.18 549.89 243.01 550.31 242.93 550.73"/>
  <line class="cls-6" x1="245.51" y1="547.97" x2="245.51" y2="548.47"/>
  <line class="cls-6" x1="254.78" y1="547.89" x2="245.51" y2="548.47"/>
  <line class="cls-6" x1="245.51" y1="516.08" x2="245.51" y2="516.49"/>
  <line class="cls-6" x1="242.93" y1="513.99" x2="242.93" y2="513.66"/>
  <line class="cls-6" x1="242.93" y1="513.66" x2="242.93" y2="513.32"/>
  <polyline class="cls-6" points="242.93 513.66 243.01 514.16 243.18 514.57 243.34 514.99 243.68 515.33 244.1 515.58 244.51 515.83 245.01 515.99 245.51 516.08"/>
  <line class="cls-6" x1="245.51" y1="516.08" x2="254.78" y2="516.66"/>
  <line class="cls-6" x1="254.78" y1="510.4" x2="245.51" y2="510.98"/>
  <polyline class="cls-6" points="245.51 510.98 245.01 511.07 244.51 511.23 244.1 511.4 243.68 511.73 243.34 512.07 243.18 512.49 243.01 512.9 242.93 513.32"/>
  <line class="cls-6" x1="242.93" y1="541.79" x2="242.93" y2="541.63"/>
  <line class="cls-6" x1="245.51" y1="538.95" x2="245.51" y2="539.2"/>
  <line class="cls-6" x1="242.93" y1="542.13" x2="242.93" y2="541.79"/>
  <polyline class="cls-6" points="242.93 542.13 243.01 542.63 243.18 543.13 243.34 543.55 243.68 543.96 244.1 544.3 244.51 544.55 245.01 544.72 245.51 544.8"/>
  <line class="cls-6" x1="245.51" y1="544.8" x2="254.78" y2="545.38"/>
  <line class="cls-6" x1="254.78" y1="538.62" x2="245.51" y2="539.2"/>
  <polyline class="cls-6" points="245.51 539.2 245.01 539.29 244.51 539.46 244.1 539.71 243.68 540.04 243.34 540.46 243.18 540.87 243.01 541.29 242.93 541.79"/>
  <line class="cls-6" x1="245.51" y1="525.43" x2="245.51" y2="525.68"/>
  <line class="cls-6" x1="242.93" y1="523.01" x2="242.93" y2="522.84"/>
  <line class="cls-6" x1="242.93" y1="532.19" x2="242.93" y2="532.11"/>
  <line class="cls-6" x1="245.51" y1="529.44" x2="245.51" y2="529.44"/>
  <line class="cls-6" x1="242.93" y1="522.84" x2="242.93" y2="522.42"/>
  <polyline class="cls-6" points="242.93 522.84 243.01 523.34 243.18 523.76 243.34 524.26 243.68 524.59 244.1 524.93 244.51 525.18 245.01 525.34 245.51 525.43"/>
  <line class="cls-6" x1="245.51" y1="525.43" x2="254.78" y2="526.1"/>
  <line class="cls-6" x1="254.78" y1="519.17" x2="245.51" y2="519.83"/>
  <polyline class="cls-6" points="245.51 519.83 245.01 519.92 244.51 520.08 244.1 520.33 243.68 520.67 243.34 521.09 243.18 521.5 243.01 522 242.93 522.42"/>
  <line class="cls-6" x1="242.93" y1="532.53" x2="242.93" y2="532.19"/>
  <polyline class="cls-6" points="242.93 532.53 243.01 533.03 243.18 533.53 243.34 533.94 243.68 534.36 244.1 534.7 244.51 535.03 245.01 535.2 245.51 535.28"/>
  <line class="cls-6" x1="245.51" y1="535.28" x2="254.78" y2="535.87"/>
  <line class="cls-6" x1="254.78" y1="528.77" x2="245.51" y2="529.44"/>
  <polyline class="cls-6" points="245.51 529.44 245.01 529.52 244.51 529.69 244.1 529.94 243.68 530.27 243.34 530.69 243.18 531.19 243.01 531.69 242.93 532.19"/>
  <polyline class="cls-6" points="242.93 557.82 243.09 557.24 243.51 556.66 244.26 556.24 245.1 555.9 245.51 555.9"/>
  <line class="cls-6" x1="254.78" y1="555.4" x2="245.51" y2="555.9"/>
  <polyline class="cls-6" points="242.93 550.39 243.09 549.64 243.51 548.89 244.26 548.39 245.1 548.06 245.51 547.97"/>
  <line class="cls-6" x1="254.78" y1="547.39" x2="245.51" y2="547.97"/>
  <polyline class="cls-6" points="242.93 541.63 243.09 540.71 243.51 539.96 244.26 539.37 245.1 539.04 245.51 538.95"/>
  <line class="cls-6" x1="254.78" y1="538.37" x2="245.51" y2="538.95"/>
  <polyline class="cls-6" points="242.93 532.11 243.09 531.27 243.51 530.44 244.26 529.85 245.1 529.52 245.51 529.44"/>
  <line class="cls-6" x1="254.78" y1="528.77" x2="245.51" y2="529.44"/>
  <line class="cls-6" x1="245.51" y1="525.68" x2="254.78" y2="526.26"/>
  <polyline class="cls-6" points="245.51 525.68 244.6 525.43 243.85 524.93 243.26 524.26 243.01 523.42 242.93 523.01"/>
  <line class="cls-6" x1="245.51" y1="516.49" x2="254.78" y2="517.08"/>
  <polyline class="cls-6" points="245.51 516.49 244.6 516.24 243.85 515.83 243.26 515.16 243.01 514.41 242.93 513.99"/>
  <line class="cls-6" x1="245.51" y1="508.31" x2="254.78" y2="508.81"/>
  <polyline class="cls-6" points="245.51 508.31 244.6 508.14 243.85 507.73 243.26 507.23 243.01 506.56 242.93 506.22"/>
  <line class="cls-6" x1="245.51" y1="501.72" x2="254.78" y2="502.05"/>
  <polyline class="cls-6" points="245.51 501.72 244.6 501.55 243.85 501.3 243.26 500.88 243.01 500.38 242.93 500.21"/>
  <line class="cls-6" x1="245.51" y1="497.12" x2="254.78" y2="497.37"/>
  <polyline class="cls-6" points="245.51 497.12 244.6 497.04 243.85 496.87 243.26 496.62 243.01 496.37 242.93 496.2"/>
  <polyline class="cls-6" points="242.93 567.01 243.09 566.76 243.51 566.51 244.26 566.34 245.1 566.26 245.51 566.26"/>
  <line class="cls-6" x1="254.78" y1="566.01" x2="245.51" y2="566.26"/>
  <polyline class="cls-6" points="242.93 563.5 243.09 563.08 243.51 562.67 244.26 562.33 245.1 562.17 245.51 562.08"/>
  <line class="cls-6" x1="254.78" y1="561.75" x2="245.51" y2="562.08"/>
  <line class="cls-6" x1="203.1" y1="518.41" x2="216.71" y2="518.41"/>
  <line class="cls-6" x1="203.1" y1="519.83" x2="216.71" y2="519.83"/>
  <line class="cls-6" x1="203.1" y1="520.84" x2="216.46" y2="520.84"/>
  <line class="cls-6" x1="203.1" y1="521.67" x2="216.46" y2="521.67"/>
  <line class="cls-6" x1="203.1" y1="524.01" x2="216.46" y2="524.01"/>
  <line class="cls-6" x1="203.1" y1="525.51" x2="216.71" y2="525.51"/>
  <line class="cls-6" x1="203.1" y1="526.6" x2="216.71" y2="526.6"/>
  <line class="cls-6" x1="203.1" y1="528.27" x2="216.71" y2="528.27"/>
  <line class="cls-6" x1="203.1" y1="529.44" x2="216.71" y2="529.44"/>
  <line class="cls-6" x1="203.1" y1="531.19" x2="216.71" y2="531.19"/>
  <line class="cls-6" x1="203.1" y1="532.36" x2="216.71" y2="532.36"/>
  <line class="cls-6" x1="203.1" y1="534.11" x2="216.71" y2="534.11"/>
  <line class="cls-6" x1="203.1" y1="535.28" x2="216.71" y2="535.28"/>
  <line class="cls-6" x1="203.1" y1="536.87" x2="216.71" y2="536.87"/>
  <line class="cls-6" x1="203.1" y1="537.95" x2="216.71" y2="537.95"/>
  <line class="cls-6" x1="203.1" y1="539.46" x2="216.71" y2="539.46"/>
  <line class="cls-6" x1="203.1" y1="540.37" x2="216.71" y2="540.37"/>
  <line class="cls-6" x1="203.1" y1="541.63" x2="216.71" y2="541.63"/>
  <line class="cls-6" x1="203.1" y1="542.38" x2="216.71" y2="542.38"/>
  <line class="cls-6" x1="203.1" y1="543.38" x2="216.71" y2="543.38"/>
  <line class="cls-6" x1="203.1" y1="543.88" x2="216.71" y2="543.88"/>
  <polyline class="cls-6" points="205.66 625.7 205.83 625.45 205.83 625.36"/>
  <polyline class="cls-6" points="204.41 625.86 204.41 625.86 204.41 625.95"/>
  <polyline class="cls-6" points="204.41 644.48 204.41 644.48 204.41 644.57"/>
  <polyline class="cls-6" points="204.41 632.38 204.41 632.29 204.41 632.21"/>
  <polyline class="cls-6" points="204.41 632.54 204.41 632.46 204.41 632.38"/>
  <polyline class="cls-6" points="204.41 636.88 204.41 636.97 204.41 637.05 204.41 637.13"/>
  <line class="cls-6" x1="219.1" y1="636.47" x2="231.63" y2="636.47"/>
  <polyline class="cls-6" points="226.87 590.88 226.87 588.62 226.87 586.45 226.87 584.2 226.87 582.03 226.87 579.86 226.87 577.69 226.87 575.6 226.87 573.43"/>
  <line class="cls-6" x1="231.63" y1="590.88" x2="226.87" y2="590.88"/>
  <line class="cls-6" x1="226.87" y1="558.48" x2="226.87" y2="573.43"/>
  <line class="cls-6" x1="226.87" y1="573.43" x2="231.63" y2="573.43"/>
  <polyline class="cls-6" points="226.87 558.48 226.87 556.9 226.87 555.39 226.87 553.81 226.87 552.3 226.87 550.8 226.87 549.3 226.87 547.88 226.87 546.37"/>
  <line class="cls-6" x1="226.87" y1="546.37" x2="231.63" y2="546.37"/>
  <line class="cls-6" x1="173.18" y1="624.53" x2="204.41" y2="624.53"/>
  <polyline class="cls-6" points="204.41 624.53 204.41 624.53 204.41 624.61 204.41 624.69 204.41 624.78"/>
  <polyline class="cls-6" points="204.41 624.53 204.99 624.53 205.49 624.61 205.83 624.78 206.08 625.03 206.08 625.19"/>
  <polyline class="cls-6" points="204.41 624.53 204.41 624.44 204.41 624.36 204.41 624.28 204.41 624.19"/>
  <polyline class="cls-6" points="206.08 625.19 206.08 625.03 205.83 624.78 205.49 624.61 204.99 624.53 204.41 624.53"/>
  <polyline class="cls-6" points="205.83 625.36 205.83 625.28 205.66 625.03 205.33 624.94 204.91 624.86 204.41 624.78"/>
  <line class="cls-6" x1="204.41" y1="624.78" x2="173.18" y2="624.78"/>
  <polyline class="cls-6" points="206.08 625.19 206.08 625.19 206 625.28 206 625.36 205.91 625.36 205.83 625.36"/>
  <line class="cls-6" x1="204.41" y1="646.65" x2="173.18" y2="646.65"/>
  <polyline class="cls-6" points="206.08 625.19 206.08 625.11 206.16 625.03 206.16 624.94 206.25 624.94 206.33 624.94"/>
  <polyline class="cls-6" points="205.58 625.7 205.83 625.53 206.08 625.28 206.08 625.19"/>
  <polyline class="cls-6" points="204.41 646.65 204.41 646.65 204.41 646.57 204.41 646.49 204.41 646.4 204.41 646.32"/>
  <polyline class="cls-6" points="206.08 645.65 206.08 645.82 205.83 646.15 205.49 646.49 204.99 646.65 204.41 646.65"/>
  <polyline class="cls-6" points="204.41 646.65 204.99 646.65 205.49 646.49 205.83 646.24 206.08 645.9 206.08 645.65"/>
  <polyline class="cls-6" points="204.41 646.99 204.41 646.99 204.41 646.9 204.41 646.82 204.41 646.74 204.41 646.65"/>
  <polyline class="cls-6" points="204.41 646.32 204.91 646.32 205.33 646.15 205.66 645.9 205.83 645.65 205.83 645.48"/>
  <line class="cls-6" x1="173.18" y1="646.32" x2="204.41" y2="646.32"/>
  <polyline class="cls-6" points="205.83 645.48 205.83 645.48 205.91 645.48 206 645.48 206 645.57 206.08 645.57 206.08 645.65"/>
  <polyline class="cls-6" points="205.83 645.48 205.83 645.32 205.66 644.98 205.33 644.73 204.91 644.57 204.41 644.48"/>
  <polyline class="cls-6" points="206.08 645.65 206.08 645.48 205.83 645.07 205.49 644.73 204.99 644.57 204.41 644.48"/>
  <polyline class="cls-6" points="206.33 645.82 206.33 645.82 206.25 645.82 206.16 645.82 206.16 645.73 206.08 645.73 206.08 645.65"/>
  <line class="cls-6" x1="173.18" y1="629.45" x2="204.41" y2="629.45"/>
  <polyline class="cls-6" points="204.41 629.45 204.41 629.54 204.41 629.62 204.41 629.7 204.41 629.79"/>
  <polyline class="cls-6" points="204.41 629.45 204.99 629.54 205.49 629.79 205.83 630.12 206.08 630.62 206.08 630.87"/>
  <polyline class="cls-6" points="204.41 629.2 204.41 629.2 204.41 629.29 204.41 629.37 204.41 629.45"/>
  <polyline class="cls-6" points="206.08 630.87 206.08 630.62 205.83 630.12 205.49 629.79 204.99 629.54 204.41 629.45"/>
  <line class="cls-6" x1="173.18" y1="640.22" x2="204.41" y2="640.22"/>
  <polyline class="cls-6" points="205.83 630.96 205.83 630.79 205.66 630.37 205.33 630.04 204.91 629.87 204.41 629.79"/>
  <line class="cls-6" x1="204.41" y1="629.79" x2="173.18" y2="629.79"/>
  <line class="cls-6" x1="173.18" y1="632.21" x2="204.41" y2="632.21"/>
  <polyline class="cls-6" points="206.08 630.87 206.08 630.87 206 630.96 205.91 630.96 205.83 630.96"/>
  <polyline class="cls-6" points="204.41 632.21 204.91 632.12 205.33 631.96 205.66 631.62 205.83 631.21 205.83 630.96"/>
  <polyline class="cls-6" points="206.08 630.87 206.08 631.12 205.83 631.62 205.49 632.04 204.99 632.29 204.41 632.38"/>
  <polyline class="cls-6" points="206.33 630.79 206.33 630.79 206.25 630.79 206.16 630.79 206.08 630.87"/>
  <polyline class="cls-6" points="204.41 632.38 204.99 632.29 205.49 632.04 205.83 631.62 206.08 631.12 206.08 630.87"/>
  <line class="cls-6" x1="204.41" y1="640.22" x2="204.41" y2="640.14"/>
  <polyline class="cls-6" points="204.41 640.22 204.41 640.22 204.41 640.31 204.41 640.39 204.41 640.47 204.41 640.56"/>
  <polyline class="cls-6" points="204.41 640.22 204.99 640.14 205.49 639.89 205.83 639.47 206.08 638.97 206.08 638.72"/>
  <line class="cls-6" x1="173.18" y1="640.14" x2="204.41" y2="640.14"/>
  <polyline class="cls-6" points="204.41 640.14 204.99 640.06 205.49 639.81 205.83 639.39 206.08 638.89 206.08 638.64"/>
  <polyline class="cls-6" points="206.08 638.72 206.08 638.39 205.83 637.89 205.49 637.47 204.99 637.22 204.41 637.13"/>
  <polyline class="cls-6" points="206.08 638.72 206.08 638.72 206.16 638.72 206.25 638.72 206.33 638.72"/>
  <line class="cls-6" x1="173.18" y1="624.19" x2="204.41" y2="624.19"/>
  <polyline class="cls-6" points="204.41 624.19 205.08 624.19 205.58 624.36 206 624.53 206.25 624.78 206.33 624.94"/>
  <polyline class="cls-6" points="206.33 624.94 206.25 625.11 206 625.45 205.58 625.7 205.08 625.86 204.41 625.95"/>
  <line class="cls-6" x1="204.41" y1="625.95" x2="173.18" y2="625.95"/>
  <line class="cls-6" x1="173.18" y1="629.2" x2="204.41" y2="629.2"/>
  <polyline class="cls-6" points="204.41 629.2 205.08 629.29 205.58 629.54 206 629.95 206.25 630.45 206.33 630.79"/>
  <polyline class="cls-6" points="206.33 630.79 206.25 631.12 206 631.62 205.58 632.12 205.08 632.38 204.41 632.54"/>
  <line class="cls-6" x1="204.41" y1="632.54" x2="173.18" y2="632.54"/>
  <line class="cls-6" x1="173.18" y1="636.88" x2="204.41" y2="636.88"/>
  <polyline class="cls-6" points="204.41 636.88 205.08 637.05 205.58 637.3 206 637.8 206.25 638.39 206.33 638.72"/>
  <polyline class="cls-6" points="206.33 638.72 206.25 639.14 206 639.64 205.58 640.14 205.08 640.47 204.41 640.56"/>
  <line class="cls-6" x1="204.41" y1="640.56" x2="173.18" y2="640.56"/>
  <line class="cls-6" x1="173.18" y1="644.48" x2="204.41" y2="644.48"/>
  <polyline class="cls-6" points="204.41 644.48 205.08 644.57 205.58 644.82 206 645.15 206.25 645.57 206.33 645.82"/>
  <polyline class="cls-6" points="206.33 645.82 206.25 646.07 206 646.49 205.58 646.74 205.08 646.99 204.41 646.99"/>
  <line class="cls-6" x1="204.41" y1="646.99" x2="173.18" y2="646.99"/>
  <line class="cls-6" x1="204.41" y1="625.86" x2="173.18" y2="625.86"/>
  <line class="cls-6" x1="173.18" y1="644.57" x2="204.41" y2="644.57"/>
  <line class="cls-6" x1="204.41" y1="632.38" x2="173.18" y2="632.38"/>
  <line class="cls-6" x1="173.18" y1="637.13" x2="204.41" y2="637.13"/>
  <line class="cls-6" x1="226.82" y1="561.25" x2="219.05" y2="561.25"/>
  <polyline class="cls-6" points="216.71 561.25 216.71 561.25 216.88 561.25 217.05 561.25 217.38 561.25 217.72 561.25 218.13 561.25 218.55 561.25 219.05 561.25"/>
  <line class="cls-6" x1="231.58" y1="558.75" x2="231.58" y2="573.69"/>
  <polyline class="cls-6" points="231.58 546.64 231.58 548.14 231.58 549.56 231.58 551.07 231.58 552.57 231.58 554.07 231.58 555.66 231.58 557.16 231.58 558.75"/>
  <line class="cls-6" x1="231.58" y1="558.75" x2="226.82" y2="558.75"/>
  <polyline class="cls-6" points="219.05 557.33 218.55 557.24 218.13 557.16 217.72 556.91 217.38 556.66 217.05 556.41 216.88 556.08 216.71 555.66 216.71 555.24"/>
  <line class="cls-6" x1="219.05" y1="557.33" x2="226.82" y2="557.33"/>
  <path class="cls-9" d="M782.4,229.18v36.2l-10.18-5.84-.06-.03-1.7-.98-.33-.08h-.33l-.34-.08h-.33l-.33.08h-.41l-.34.08-.41.08h-.08v.08h-.08v.17l-.08.08v.08h-.08v.08h-.08l-.17.08-.25.1-.26.08-.25.08-.25.08-.17.08-.25.17-.17.06-.25-.14h-.17l-.43.25-.33.25-.41.25-.41.33-.34.34-.41.33-.33.33-.41.33-.08.08v.43h-.1v.08l-.25.25-.17.25-.25.25-.17.25-.25.25-.17.26-.25.25-.18.25-.08.08h-.33v.08h-.08l-.25.5-.33.43-.25.5-.34.5-.25.51-.25.5-.25.5-.17.51h-.08v.17h.08M756.1,276.24l.42,2.18-.08.08v.08l-.08.08h.08l.08.41.17.33.17.25.17.34.18.25.25.33.41.41h.08l22.04,12.77.5.33.51.34.58.33.41.25.41.25v49.7s.08.41.08.41l.03.21.32,1.36.41,1.75.58,1.42.76,1.24.99.92.51.36.08.06,88.33,51.01,10.36,5.93.58.33.84.43,1.42.41,1.42.08,1.5-.25,1.96-.84,1.95-1.08,58.04-33.58,1.75-1.16,1.67-1.42,1.59-1.59,1.42-1.92,1.32-2.01,1.09-2.17.92-2.17.58-2.18.41-2.17.17-2.08.34-130.49v-.12s0-.15,0-.15v-.17l-.08-.99-.18-1.77-.5-1.59-.66-1.41-.92-1.17-1.09-.92-.33-.17-10.94-6.35-88.33-51.01-.25-.08-.34-.17-1.28-.4h-.06s-1.49-.1-1.49-.1l-1.59.25-1.59.5-1.67.84-.18-.08h-.29l-.12.08-29.54,17.06-.74.4M757.61,269.23l-.17.33-.08.33-.08.25-.17.34-.1.25-.08.33-.08.33-.08.25v.08l-.08.08v.08h-.17l-.08.1v.08h-.08v.08l-.17.99-.08.51-.08.5-.08.41v1.5h.08"/>
  <line class="cls-5" x1="767.57" y1="259.42" x2="782.51" y2="268.02"/>
  <line class="cls-5" x1="782.51" y1="268.43" x2="767.32" y2="259.67"/>
  <line class="cls-5" x1="761.97" y1="263.01" x2="782.51" y2="274.86"/>
  <line class="cls-5" x1="782.51" y1="275.2" x2="761.89" y2="263.26"/>
  <polyline class="cls-5" points="779.76 282.29 779.76 282.38 779.84 282.38 779.84 282.46 779.76 282.54"/>
  <polyline class="cls-5" points="779.67 282.04 779.67 282.13 779.67 282.21 779.67 282.29"/>
  <line class="cls-5" x1="782.51" y1="270.27" x2="765.15" y2="260.25"/>
  <line class="cls-5" x1="762.06" y1="262.67" x2="782.51" y2="274.44"/>
  <line class="cls-5" x1="767.73" y1="259.17" x2="782.51" y2="267.68"/>
  <line class="cls-5" x1="756.63" y1="278.95" x2="778.67" y2="291.65"/>
  <polyline class="cls-5" points="778.67 291.65 779.09 291.81 779.34 291.9 779.59 291.73 779.59 291.48"/>
  <line class="cls-5" x1="756.8" y1="278.79" x2="778.84" y2="291.56"/>
  <polyline class="cls-5" points="778.84 291.56 779.26 291.73 779.51 291.73 779.67 291.65"/>
  <polyline class="cls-5" points="778.17 289.31 778.17 289.31 778.17 289.39"/>
  <line class="cls-5" x1="778.76" y1="285.22" x2="756.71" y2="272.44"/>
  <line class="cls-5" x1="779.76" y1="282.54" x2="757.71" y2="269.77"/>
  <line class="cls-5" x1="756.88" y1="272.19" x2="779.01" y2="284.97"/>
  <polyline class="cls-5" points="779.01 284.97 779.34 285.05 779.67 285.05 780.01 284.88 780.26 284.55 780.34 284.3"/>
  <polyline class="cls-5" points="778.76 285.22 778.76 285.22 778.84 285.22 778.84 285.13 778.92 285.13 778.92 285.05 778.92 284.97 779.01 284.97"/>
  <polyline class="cls-5" points="779.42 285.3 779.17 285.38 778.76 285.22"/>
  <line class="cls-5" x1="760.22" y1="265.26" x2="782.35" y2="278.04"/>
  <polyline class="cls-5" points="778.76 285.22 779.17 285.38 779.59 285.3 779.92 285.05 780.26 284.71 780.34 284.46"/>
  <polyline class="cls-5" points="778.59 285.47 778.59 285.38 778.59 285.3 778.67 285.3 778.67 285.22 778.76 285.22"/>
  <polyline class="cls-5" points="780.34 284.3 780.43 284.13 780.43 283.63 780.26 283.21 780.09 282.79 779.76 282.54"/>
  <polyline class="cls-5" points="780.34 284.38 780.34 284.38 780.34 284.3"/>
  <polyline class="cls-5" points="779.67 282.29 779.67 282.29 779.76 282.29"/>
  <polyline class="cls-5" points="780.34 284.46 780.43 284.13 780.43 283.63 780.34 283.04 780.09 282.63 779.76 282.29"/>
  <polyline class="cls-5" points="780.34 284.55 780.34 284.55 780.34 284.46 780.26 284.46 780.34 284.46"/>
  <line class="cls-5" x1="781.84" y1="278.2" x2="759.72" y2="265.43"/>
  <line class="cls-5" x1="757.63" y1="269.35" x2="779.67" y2="282.04"/>
  <polyline class="cls-5" points="779.67 282.04 780.09 282.46 780.34 282.96 780.51 283.55 780.43 284.21 780.34 284.55"/>
  <polyline class="cls-5" points="780.34 284.55 780.26 284.88 779.92 285.3 779.51 285.55 779.01 285.63 778.59 285.47"/>
  <line class="cls-5" x1="778.59" y1="285.47" x2="756.46" y2="272.69"/>
  <line class="cls-5" x1="756.04" y1="276.53" x2="778.17" y2="289.31"/>
  <polyline class="cls-5" points="778.17 289.31 778.59 289.64 779.01 290.14 779.34 290.64 779.51 291.23 779.59 291.48"/>
  <polyline class="cls-5" points="779.59 291.48 779.59 291.73 779.59 292.06 779.34 292.23 779.01 292.15 778.59 291.98"/>
  <line class="cls-5" x1="778.59" y1="291.98" x2="756.55" y2="279.2"/>
  <line class="cls-5" x1="757.97" y1="281.54" x2="780.09" y2="294.32"/>
  <line class="cls-5" x1="758.05" y1="281.54" x2="780.09" y2="294.32"/>
  <line class="cls-5" x1="756.13" y1="276.62" x2="778.17" y2="289.39"/>
  <line class="cls-5" x1="782.51" y1="270.19" x2="765.31" y2="260.25"/>
  <line class="cls-5" x1="757.63" y1="269.52" x2="779.67" y2="282.29"/>
  <line class="cls-5" x1="782.1" y1="278.12" x2="759.97" y2="265.34"/>
  <path class="cls-9" d="M785.29,187.16c-.83-.06-1.04-.19-1.44-.25-.39-.07-.64-.23-.89-.08-.36.22-.32.86-.69.95-.07.02-.13,0-.17,0l-1.09.17-1,.42-.42.17-.58.42-1,.92-.92,1.09-.67,1.25-.58,1.25-.33,1.34-.08,1.42.17,1.09.42,1c-.04.66-.14,1.19-.23,1.55-.23.93-.49,1.33-.39,2.04.06.42.16.3.28.88.13.66.08,1.17.47,1.59.03.04.06.07.08.08"/>
  <polyline class="cls-10" points="776.39 204.93 775.72 207.69 775.22 210.44 774.97 213.12 774.97 215.7 775.13 218.13 775.63 220.46 776.3 222.63 777.22 224.64 778.31 226.39 779.64 227.81 781.14 229.06 781.98 229.56"/>
  <polyline class="cls-10" points="816.79 179.16 811.12 176.04 809.28 175.46 807.45 175.13 805.36 175.13 803.27 175.29 801.18 175.88 798.93 176.63 796.76 177.71 794.5 179.05 792.33 180.55 790.25 182.39 788.16 184.39 785.68 187.13"/>
  <polyline class="cls-9" points="821.53 178.3 821.45 178.3 819.11 178.72 816.87 179.25"/>
  <polyline class="cls-6" points="960.39 226.81 957.22 227.57 954.21 228.65 951.46 229.99 948.95 231.49"/>
  <line class="cls-6" x1="948.95" y1="292.86" x2="948.95" y2="231.49"/>
  <polyline class="cls-6" points="948.95 231.49 949.37 228.73 950.04 226.23 951.04 224.06 952.38 222.22"/>
  <line class="cls-6" x1="948.95" y1="231.49" x2="892.26" y2="264.22"/>
  <line class="cls-6" x1="892.26" y1="264.22" x2="892.26" y2="325.59"/>
  <polyline class="cls-6" points="893.93 255.95 893.1 257.54 892.51 259.46 892.26 261.72 892.26 264.22"/>
  <polyline class="cls-6" points="892.26 264.22 890.09 265.39 888.34 266.73 886.92 268.14 886 269.73"/>
  <polyline class="cls-6" points="952.38 371.85 951.04 369.01 950.04 366.09 949.37 363.33 948.95 360.66"/>
  <polyline class="cls-6" points="948.95 360.66 951.46 359.66 954.21 358.9 957.22 358.32 960.39 358.07"/>
  <polyline class="cls-6" points="892.26 393.39 892.26 396.31 892.51 399.32 893.1 402.49 893.93 405.58"/>
  <line class="cls-6" x1="892.26" y1="393.39" x2="948.95" y2="360.66"/>
  <line class="cls-6" x1="948.95" y1="360.66" x2="948.95" y2="292.86"/>
  <polyline class="cls-6" points="886 400.99 886.92 398.9 888.34 396.98 890.09 395.06 892.26 393.39"/>
  <line class="cls-6" x1="892.26" y1="325.59" x2="892.26" y2="393.39"/>
  <polyline class="cls-6" points="886 332.19 886.42 331.27 886.92 330.35 887.58 329.51 888.34 328.6 889.17 327.84 890.09 327.01 891.18 326.26 892.26 325.59"/>
  <line class="cls-6" x1="892.26" y1="325.59" x2="948.95" y2="292.86"/>
  <polyline class="cls-6" points="921.64 266.49 920.97 266.74 920.14 266.9"/>
  <polyline class="cls-6" points="915.21 272.33 916.96 272.41 918.97 272.25 920.72 272"/>
  <polyline class="cls-6" points="921.81 265.9 921.89 266.23 922.06 267.65 921.89 269.24 921.56 270.91 920.97 272.58 920.14 274.25 919.22 275.84 918.05 277.26 916.88 278.51 915.55 279.59 914.29 280.35 913.29 280.68"/>
  <line class="cls-6" x1="917.47" y1="276" x2="918.3" y2="276.25"/>
  <line class="cls-6" x1="913.71" y1="275.92" x2="916.3" y2="277.17"/>
  <polyline class="cls-6" points="916.88 276 917.72 276.34 918.22 276.5"/>
  <line class="cls-6" x1="916.3" y1="277.34" x2="916.3" y2="276"/>
  <polyline class="cls-6" points="913.62 276.17 914.88 276.76 916.3 277.34"/>
  <polyline class="cls-6" points="913.79 275.75 915.29 275.92 917.38 275.92 918.55 275.84"/>
  <polyline class="cls-6" points="914.54 273.58 916.38 273.67 918.47 273.67 920.05 273.5"/>
  <polyline class="cls-6" points="921.56 265.98 921.64 266.9 921.64 268.32 921.39 269.83 920.89 271.33 920.3 272.91 919.47 274.5 918.55 275.92 917.47 277.26 916.3 278.43 915.13 279.43 913.96 280.1 913.29 280.43"/>
  <polyline class="cls-6" points="219.74 500.5 219.74 500.59 219.74 500.75 219.74 501.26 219.74 501.84 219.74 502.76 219.74 503.84 219.74 505.1 219.74 506.52 219.74 508.19 219.74 509.94 219.74 511.86 219.74 513.95 219.74 516.2 219.74 518.46 219.74 520.88 219.74 523.38 219.74 525.89 219.74 528.48 219.74 530.98 219.74 533.57 219.74 536.16 219.74 538.66 219.74 541.17 219.74 543.59 219.74 545.84 219.74 548.1 219.74 550.18 219.74 552.1 219.74 553.94 219.74 555.53 219.74 557.03"/>
  <polyline class="cls-6" points="217.4 647.96 217.4 647.87 217.4 647.54 217.4 646.96 217.4 646.12 217.4 645.2 217.4 644.03 217.4 642.7 217.4 641.19 217.4 639.69 217.4 638.02 217.4 636.44"/>
  <polyline class="cls-6" points="219.74 636.44 219.74 638.27 219.74 640.03 219.74 641.78 219.74 643.37 219.74 644.95 219.74 646.29 219.74 647.46 219.74 648.46 219.74 649.29 219.74 649.88 219.74 650.21 219.74 650.38"/>
  <polyline class="cls-6" points="217.4 636.44 217.4 636.44 217.56 636.44 217.73 636.44 218.07 636.44 218.4 636.44 218.82 636.44 219.23 636.44 219.74 636.44"/>
  <line class="cls-6" x1="219.74" y1="560.96" x2="219.74" y2="636.44"/>
  <path class="cls-9" d="M941.17,495.75l-.41-1.92-.59-1.92-.74-1.83-1.09-1.75-1.26-1.59-1.42-1.34-1.5-1.26-1.75-1.09-1.83-.74-1.92-.68-1.92-.33-2.01-.08h-82.15l-2.01.08-1.92.33-1.92.68-1.83.74-1.75,1.09-1.5,1.26-1.42,1.34-1.26,1.59-.99,1.75-.84,1.83-.58,1.92-.43,1.92-.08,2.01v159.72l.08,2,.43,2.01.58,1.92.84,1.83.99,1.67,1.26,1.59,1.42,1.42,1.5,1.26,1.75.99,1.83.84,1.92.58,1.92.33,2.01.17h82.15l2.01-.17,1.92-.33,1.92-.58,1.83-.84,1.75-.99,1.5-1.26,1.42-1.42,1.26-1.59,1.09-1.67.74-1.83.59-1.92.41-2.01.08-2v-159.72l-.08-2.01Z"/>
  <line class="cls-6" x1="843.37" y1="498.25" x2="843.37" y2="573.48"/>
  <line class="cls-6" x1="923.52" y1="498.25" x2="843.37" y2="498.25"/>
  <line class="cls-6" x1="923.52" y1="573.48" x2="923.52" y2="498.25"/>
  <polyline class="cls-6" points="842.11 485.72 842.36 488.06 842.61 490.48 842.87 493.07 843.12 495.66 843.37 498.25"/>
  <polyline class="cls-6" points="843.37 498.25 840.78 498 838.11 497.75 835.6 497.5 833.18 497.25 830.84 496.99"/>
  <polyline class="cls-6" points="936.91 496.94 933.71 497.25 931.29 497.5 928.78 497.75 926.11 498 923.52 498.25"/>
  <polyline class="cls-6" points="923.52 498.25 923.77 495.66 924.02 493.07 924.27 490.48 924.52 488.06 924.77 485.72"/>
  <line class="cls-6" x1="843.37" y1="573.48" x2="843.37" y2="656.47"/>
  <line class="cls-6" x1="843.37" y1="656.47" x2="923.52" y2="656.47"/>
  <line class="cls-6" x1="923.52" y1="656.47" x2="923.52" y2="573.48"/>
  <polyline class="cls-6" points="830.84 657.72 833.18 657.56 835.6 657.31 838.11 657.06 840.78 656.81 843.37 656.47"/>
  <polyline class="cls-6" points="843.37 656.47 843.12 659.14 842.87 661.73 842.61 664.32 842.36 666.74 842.11 669.08"/>
  <polyline class="cls-6" points="924.77 669.08 924.52 666.74 924.27 664.32 924.02 661.73 923.77 659.14 923.52 656.47"/>
  <polyline class="cls-6" points="923.52 656.47 926.11 656.81 928.78 657.06 931.29 657.31 933.71 657.56 936.05 657.72"/>
  <polyline class="cls-6" points="882.88 535.37 884.05 536.12 884.14 536.12"/>
  <line class="cls-6" x1="882.38" y1="535.54" x2="883.3" y2="535.95"/>
  <line class="cls-6" x1="881.97" y1="535.62" x2="882.38" y2="535.79"/>
  <polyline class="cls-6" points="889.73 529.44 889.73 529.44 889.9 529.44 890.15 529.44 890.73 529.44 891.48 529.44 892.4 529.44 893.49 529.44 893.65 529.44"/>
  <polyline class="cls-6" points="887.64 524.6 887.64 524.6 887.81 524.6 888.23 524.6 888.81 524.6 889.65 524.6 890.65 524.6 890.73 524.6"/>
  <polyline class="cls-6" points="893.82 533.87 893.49 533.87 892.4 533.87 891.48 533.87 890.73 533.87 890.15 533.87 889.9 533.87 889.73 533.87"/>
  <polyline class="cls-6" points="887.64 538.71 887.64 538.71 887.81 538.71 888.23 538.71 888.81 538.71 889.65 538.71 890.65 538.71 891.48 538.71"/>
  <polyline class="cls-6" points="874.37 528.94 875.29 528.94 876.29 528.94 877.04 528.94 877.62 528.94 878.04 528.94 878.21 528.94"/>
  <polyline class="cls-6" points="877.79 524.1 878.54 524.1 879.29 524.1 879.88 524.1 880.21 524.1 880.3 524.1"/>
  <polyline class="cls-6" points="878.21 533.45 878.21 533.45 878.04 533.45 877.62 533.45 877.04 533.45 876.29 533.45 875.29 533.45 874.2 533.45 874.03 533.45"/>
  <polyline class="cls-6" points="876.12 538.29 876.45 538.29 877.54 538.29 878.54 538.29 879.29 538.29 879.88 538.29 880.21 538.29 880.3 538.29"/>
  <line class="cls-6" x1="880.21" y1="532.28" x2="878.46" y2="532.36"/>
  <line class="cls-6" x1="880.21" y1="532.28" x2="880.04" y2="527.69"/>
  <line class="cls-6" x1="880.04" y1="527.69" x2="880.3" y2="527.69"/>
  <line class="cls-6" x1="887.81" y1="532.03" x2="887.64" y2="528.77"/>
  <line class="cls-6" x1="888.31" y1="532.03" x2="887.81" y2="532.03"/>
  <line class="cls-6" x1="886.89" y1="535.04" x2="886.81" y2="534.53"/>
  <line class="cls-6" x1="886.89" y1="535.04" x2="888.56" y2="536.96"/>
  <polyline class="cls-6" points="883.22 526.77 884.3 526.77 885.31 526.94 886.22 527.35 887.06 528.02 887.73 528.86 888.23 529.77 888.39 530.86 888.39 531.86 888.06 532.86 887.56 533.78 886.81 534.53"/>
  <polyline class="cls-6" points="888.73 536.62 887.98 535.87 886.81 534.53"/>
  <polyline class="cls-6" points="881.71 536.29 880.88 535.62 880.04 534.78"/>
  <polyline class="cls-6" points="880.04 534.78 879.04 533.62 878.46 532.45 878.29 531.36 878.37 530.36 878.88 529.11 879.38 528.27"/>
  <polyline class="cls-6" points="879.38 528.27 879.79 527.85 880.55 527.35 880.71 527.27"/>
  <polyline class="cls-6" points="880.71 527.27 881.38 527.02 882.3 526.77 883.22 526.77"/>
  <polyline class="cls-6" points="886.89 522.43 886.22 522.43 885.39 522.76 884.8 523.26 884.22 524.1 883.8 525.02 883.22 526.77"/>
  <polyline class="cls-6" points="881.71 536.29 882.88 538.21 884.64 540.8"/>
  <polyline class="cls-6" points="881.05 541.13 881.63 541.3 883.13 541.55 884.64 541.55 886.14 541.38 886.89 541.21"/>
  <line class="cls-6" x1="887.81" y1="532.03" x2="887.81" y2="532.2"/>
  <line class="cls-6" x1="887.81" y1="532.2" x2="880.21" y2="532.45"/>
  <line class="cls-6" x1="880.21" y1="532.45" x2="880.21" y2="532.28"/>
  <polyline class="cls-6" points="882.88 535.37 883.3 535.37 883.55 535.54"/>
  <line class="cls-6" x1="882.38" y1="535.54" x2="882.88" y2="535.37"/>
  <polyline class="cls-6" points="881.97 535.62 882.22 535.54 882.38 535.54"/>
  <polyline class="cls-6" points="881.63 535.79 881.63 535.7 881.97 535.62"/>
  <line class="cls-6" x1="887.31" y1="534.12" x2="886.97" y2="533.95"/>
  <line class="cls-6" x1="886.06" y1="533.7" x2="886.97" y2="533.95"/>
  <line class="cls-6" x1="887.23" y1="534.2" x2="886.06" y2="533.7"/>
  <polyline class="cls-6" points="885.72 536.45 886.06 535.79 886.22 535.12 886.22 534.37 886.06 533.7"/>
  <polyline class="cls-6" points="888.39 537.29 885.89 536.37 882.05 535.79 881.05 535.79"/>
  <polyline class="cls-6" points="888.39 537.29 884.89 536.29 881.21 535.95"/>
  <polyline class="cls-6" points="886.72 539.63 885.05 539.04 883.3 538.79"/>
  <polyline class="cls-6" points="886.81 539.63 884.55 539.21 883.55 539.21"/>
  <line class="cls-6" x1="886.97" y1="539.79" x2="883.64" y2="539.29"/>
  <polyline class="cls-6" points="881.13 541.46 881.97 541.63 883.55 541.8 885.05 541.8 886.64 541.46 886.89 541.46"/>
  <polyline class="cls-6" points="886.89 523.51 886.89 523.51 886.97 523.51 887.31 523.51 887.81 523.51 888.56 523.51 889.31 523.51"/>
  <polyline class="cls-6" points="886.89 539.79 886.89 539.79 886.97 539.79 887.31 539.79 887.81 539.79 888.56 539.79 889.48 539.79 890.31 539.79"/>
  <polyline class="cls-6" points="879.46 523.01 879.79 523.01 880.46 523.01 880.88 523.01 881.05 523.01 881.13 523.01"/>
  <polyline class="cls-6" points="877.04 539.38 877.96 539.38 878.96 539.38 879.79 539.38 880.46 539.38 880.88 539.38 881.05 539.38 881.13 539.38"/>
  <polyline class="cls-6" points="873.95 532.03 874.03 533.53 874.37 534.95 874.87 536.37 875.62 537.71 876.62 538.88 877.71 539.88 878.96 540.71 880.3 541.38 881.71 541.8 883.22 542.05 884.72 542.05 886.22 541.8 887.64 541.38 888.98 540.71 890.23 539.88 891.32 538.88 892.32 537.71 893.07 536.37 893.57 534.95 893.91 533.53 893.99 532.03 893.91 530.53 893.57 529.02 893.07 527.69 892.32 526.35 891.32 525.18 890.23 524.18 888.98 523.26 887.64 522.68 886.22 522.18 884.72 522.01 883.22 522.01 881.71 522.18 880.3 522.68 878.96 523.26 877.71 524.18 876.62 525.18 875.62 526.35 874.87 527.69 874.37 529.02 874.03 530.53 873.95 532.03"/>
  <line class="cls-6" x1="880.3" y1="527.69" x2="880.04" y2="527.94"/>
  <line class="cls-6" x1="880.46" y1="531.44" x2="887.06" y2="531.19"/>
  <line class="cls-6" x1="887.06" y1="531.19" x2="886.97" y2="527.85"/>
  <line class="cls-6" x1="886.39" y1="527.52" x2="880.3" y2="527.69"/>
  <line class="cls-6" x1="880.3" y1="527.69" x2="880.46" y2="531.44"/>
  <line class="cls-6" x1="884.64" y1="536.2" x2="883.55" y2="535.54"/>
  <polyline class="cls-6" points="889.73 529.44 889.9 529.94 889.98 530.53 889.98 531.11 889.98 531.7 889.98 532.2 889.98 532.78 889.9 533.37 889.73 533.87"/>
  <polyline class="cls-6" points="886.89 523.51 886.97 523.6 887.06 523.76 887.14 523.85 887.23 524.01 887.31 524.18 887.48 524.26 887.56 524.43 887.64 524.6"/>
  <line class="cls-6" x1="886.89" y1="522.34" x2="886.89" y2="523.51"/>
  <line class="cls-6" x1="886.89" y1="539.79" x2="886.89" y2="541.63"/>
  <polyline class="cls-6" points="887.64 538.71 887.56 538.88 887.48 539.04 887.31 539.13 887.23 539.29 887.14 539.46 887.06 539.54 886.97 539.71 886.89 539.79"/>
  <polyline class="cls-6" points="887.64 524.6 888.9 526.94 889.73 529.44"/>
  <polyline class="cls-6" points="889.73 533.87 888.9 536.37 887.64 538.71"/>
  <polyline class="cls-6" points="878.21 533.45 878.04 532.86 877.96 532.28 877.96 531.78 877.96 531.19 877.96 530.61 877.96 530.03 878.04 529.44 878.21 528.94"/>
  <polyline class="cls-6" points="880.3 524.1 880.38 523.93 880.55 523.85 880.63 523.68 880.71 523.51 880.8 523.43 880.88 523.26 880.96 523.1 881.13 523.01"/>
  <polyline class="cls-6" points="881.13 539.38 880.96 539.21 880.88 539.04 880.8 538.96 880.71 538.79 880.63 538.71 880.55 538.54 880.38 538.37 880.3 538.29"/>
  <line class="cls-6" x1="881.13" y1="541.63" x2="881.13" y2="539.38"/>
  <polyline class="cls-6" points="878.21 528.94 878.63 527.44 879.38 525.85 880.3 524.1"/>
  <polyline class="cls-6" points="880.3 538.29 879.38 536.54 878.63 534.95 878.21 533.45"/>
  <line class="cls-6" x1="940.48" y1="212.22" x2="852.14" y2="161.21"/>
  <line class="cls-6" x1="794.02" y1="194.77" x2="882.45" y2="245.79"/>
  <line class="cls-6" x1="870.67" y1="266.08" x2="782.34" y2="215.06"/>
  <line class="cls-6" x1="951.33" y1="218.49" x2="940.48" y2="212.22"/>
  <line class="cls-6" x1="881.61" y1="272.34" x2="870.67" y2="266.08"/>
  <line class="cls-6" x1="882.45" y1="245.79" x2="893.3" y2="252.05"/>
  <line class="cls-6" x1="782.49" y1="343.61" x2="870.83" y2="394.62"/>
  <line class="cls-6" x1="870.96" y1="394.62" x2="881.9" y2="400.88"/>
  <line class="cls-3" x1="432.5" y1="298.55" x2="155.17" y2="298.55"/>
  <line class="cls-5" x1="216.82" y1="300.29" x2="203.46" y2="300.29"/>
  <line class="cls-5" x1="203.46" y1="300.21" x2="216.83" y2="300.21"/>
  <line class="cls-7" x1="217.07" y1="298.62" x2="203.3" y2="298.62"/>
  <line class="cls-5" x1="203.46" y1="299.29" x2="216.89" y2="299.29"/>
  <line class="cls-5" x1="203.46" y1="300.38" x2="216.82" y2="300.38"/>
  <line class="cls-5" x1="203.46" y1="301.96" x2="216.82" y2="301.96"/>
  <line class="cls-5" x1="216.85" y1="295.84" x2="203.16" y2="295.84"/>
  <line class="cls-5" x1="203.16" y1="295.76" x2="216.9" y2="295.76"/>
  <line class="cls-5" x1="203.39" y1="294.84" x2="217" y2="294.84"/>
  <line class="cls-5" x1="203.16" y1="295.93" x2="216.85" y2="295.93"/>
  <line class="cls-5" x1="203.39" y1="297.51" x2="216.75" y2="297.51"/>
  <line class="cls-5" x1="216.79" y1="291.92" x2="203.21" y2="291.92"/>
  <line class="cls-5" x1="203.18" y1="291.43" x2="216.79" y2="291.43"/>
  <line class="cls-5" x1="203.31" y1="290.92" x2="216.92" y2="290.92"/>
  <line class="cls-5" x1="203.07" y1="293.59" x2="216.79" y2="293.59"/>
  <g>
    <line class="cls-4" x1="941.29" y1="719.16" x2="825.89" y2="719.19"/>
    <line class="cls-4" x1="941.24" y1="724.99" x2="941.24" y2="714.72"/>
    <line class="cls-4" x1="825.89" y1="724.26" x2="825.89" y2="713.99"/>
    <text class="cls-12" transform="translate(878.65 715.05)"><tspan x="0" y="0">48.7</tspan></text>
  </g>
  <line class="cls-8" x1="595.12" y1="159.69" x2="595.12" y2="723.78"/>
  <line class="cls-8" x1="56.13" y1="441.62" x2="1131.38" y2="441.85"/>
</svg>